<svg xmlns="http://www.w3.org/2000/svg">
<defs>
<font id="BlessedDay" horiz-adv-x="1192" >
  <font-face 
    font-family="BlessedDay"
    font-weight="400"
    font-stretch="normal"
    units-per-em="1000"
    panose-1="2 0 4 0 0 0 0 0 0 0"
    ascent="800"
    descent="-200"
    x-height="385"
    cap-height="723"
    bbox="-1250 -169.259 1316 800"
    underline-thickness="20"
    underline-position="-123"
    unicode-range="U+0020-007D"
  />
<missing-glyph 
d="M1135 94c1 -23 -10 -35 -32 -35c-21 0 -33 13 -34 38l8 7l11 -6c1 -14 6 -21 14 -21c9 1 13 6 13 16c0 5 -5 14 -16 26c-8 7 -16 15 -23 23c-3 7 -5 13 -5 20c0 23 10 34 31 34c20 0 31 -10 32 -31l-19 -4c-1 11 -6 17 -13 17s-10 -5 -10 -15c0 -7 9 -19 26 -36
c11 -11 17 -22 17 -33zM1013 60v114h-21v20h63v-20h-22v-114l-10 -7zM1108 0h-4l17 36h4zM1067 1h-5v28h5l14 -17l13 17h5v-28h-6v19l-12 -16h-1l-13 16v-19zM482 608l88 192l85 -191l210 -24l-155 -140l43 -207l-182 104l-184 -104l43 204l-156 143zM906 194h23l26 -90v90
h21v-134h-22l-28 86v-86h-20v115l-7 9zM1015 8v14c0 5 2 7 7 7h21c5 0 7 -2 7 -7v-14c0 -5 -2 -7 -7 -7h-21c-5 0 -7 2 -7 7zM998 18v5h-18v-17h18v6l6 -1v-3c0 -5 -2 -7 -7 -7h-17c-5 0 -7 2 -7 7v14c0 5 2 7 7 7h17c5 0 7 -2 7 -7v-3zM856 196c21 0 32 -11 32 -32v-73
c0 -21 -11 -32 -32 -32s-32 11 -32 32v73c0 21 11 32 32 32zM952 11h9c1 -1 1 -1 1 -2v-6c0 -1 0 -1 -1 -2h-8c-1 0 -1 0 -1 1v9zM943 24h-13v-23h-7v23h-13v5h33v-5zM773 117v-57h-20v114l-7 10l7 10h57v-20h-37v-37h27v-20h-27zM867 8v14c0 5 2 7 7 7h21c5 0 7 -2 7 -7
v-14c0 -5 -2 -7 -7 -7h-21c-5 0 -7 2 -7 7zM833 1h-7v28h25c5 0 7 -2 7 -6v-6c0 -3 -2 -5 -7 -5h-18v-11zM725 80v-20h-55v134l10 8l10 -8v-114h35zM809 21v3h-19v-6h18c5 0 7 -2 7 -7v-3c0 -5 -2 -7 -7 -7h-18c-5 0 -7 2 -7 7l5 1v-3h21v6h-18c-5 0 -7 2 -7 7v3
c0 5 2 7 7 7h16c5 0 7 -2 7 -6v-1zM765 21v2h-21v-17h21v6h-11v5h18v-9c0 -5 -2 -7 -7 -7h-20c-5 0 -7 2 -7 7v14c0 5 2 7 7 7h20c5 0 7 -2 7 -7zM656 60h-57v114l-7 10l7 10h57v-20h-37v-37h27v-20h-27v-37h37v-20zM691 8v14c0 5 2 7 7 7h22c5 0 7 -2 7 -7v-14

<glyph glyph-name=".notdef" 
d="M1135 94c1 -23 -10 -35 -32 -35c-21 0 -33 13 -34 38l8 7l11 -6c1 -14 6 -21 14 -21c9 1 13 6 13 16c0 5 -5 14 -16 26c-8 7 -16 15 -23 23c-3 7 -5 13 -5 20c0 23 10 34 31 34c20 0 31 -10 32 -31l-19 -4c-1 11 -6 17 -13 17s-10 -5 -10 -15c0 -7 9 -19 26 -36
c11 -11 17 -22 17 -33zM1013 60v114h-21v20h63v-20h-22v-114l-10 -7zM1108 0h-4l17 36h4zM1067 1h-5v28h5l14 -17l13 17h5v-28h-6v19l-12 -16h-1l-13 16v-19zM482 608l88 192l85 -191l210 -24l-155 -140l43 -207l-182 104l-184 -104l43 204l-156 143zM906 194h23l26 -90v90
h21v-134h-22l-28 86v-86h-20v115l-7 9zM1015 8v14c0 5 2 7 7 7h21c5 0 7 -2 7 -7v-14c0 -5 -2 -7 -7 -7h-21c-5 0 -7 2 -7 7zM998 18v5h-18v-17h18v6l6 -1v-3c0 -5 -2 -7 -7 -7h-17c-5 0 -7 2 -7 7v14c0 5 2 7 7 7h17c5 0 7 -2 7 -7v-3zM856 196c21 0 32 -11 32 -32v-73
c0 -21 -11 -32 -32 -32s-32 11 -32 32v73c0 21 11 32 32 32zM952 11h9c1 -1 1 -1 1 -2v-6c0 -1 0 -1 -1 -2h-8c-1 0 -1 0 -1 1v9zM943 24h-13v-23h-7v23h-13v5h33v-5zM773 117v-57h-20v114l-7 10l7 10h57v-20h-37v-37h27v-20h-27zM867 8v14c0 5 2 7 7 7h21c5 0 7 -2 7 -7
v-14c0 -5 -2 -7 -7 -7h-21c-5 0 -7 2 -7 7zM833 1h-7v28h25c5 0 7 -2 7 -6v-6c0 -3 -2 -5 -7 -5h-18v-11zM725 80v-20h-55v134l10 8l10 -8v-114h35zM809 21v3h-19v-6h18c5 0 7 -2 7 -7v-3c0 -5 -2 -7 -7 -7h-18c-5 0 -7 2 -7 7l5 1v-3h21v6h-18c-5 0 -7 2 -7 7v3
c0 5 2 7 7 7h16c5 0 7 -2 7 -6v-1zM765 21v2h-21v-17h21v6h-11v5h18v-9c0 -5 -2 -7 -7 -7h-20c-5 0 -7 2 -7 7v14c0 5 2 7 7 7h20c5 0 7 -2 7 -7zM656 60h-57v114l-7 10l7 10h57v-20h-37v-37h27v-20h-27v-37h37v-20zM691 8v14c0 5 2 7 7 7h22c5 0 7 -2 7 -7v-14
c0 -5 -2 -7 -7 -7h-22c-5 0 -7 2 -7 7zM684 1h-28v28h7v-23h21v-5zM549 58c-21 0 -32 11 -32 32v73c0 22 11 33 32 33s32 -11 32 -33v-15h-21v16c0 8 -4 12 -11 12c-8 0 -12 -4 -12 -12v-73c0 -8 4 -12 12 -12c7 0 11 4 11 12v26h-11l-8 9l8 11h32v-47
c0 -21 -11 -32 -32 -32zM636 1h-23v28h25c4 0 6 -2 6 -6v-3c0 -3 -1 -4 -4 -5c3 -1 5 -2 5 -5v-4c0 -3 -3 -5 -9 -5zM592 11h9v-10h-8c-1 0 -2 1 -2 2v6c0 1 0 1 1 2zM436 194h31c21 0 32 -11 32 -32v-19c0 -10 -4 -18 -11 -24l15 -59h-22l-12 51h-13v-51h-20v115l-7 9z
M584 1h-28v28h7v-23h21v-5zM546 1h-30v28h30v-5h-23v-6h13v-5h-13v-7h23v-5zM393 91h-21l-5 -31l-11 -6l-10 6l22 134h28l23 -134l-11 -6l-11 6zM498 21v2h-21v-17h21v6h-11v5h18v-9c0 -5 -2 -7 -7 -7h-20c-5 0 -7 2 -7 7v14c0 5 2 7 7 7h20c5 0 7 -2 7 -7zM436 1h-7v28h25
c4 0 6 -2 6 -6v-6c0 -4 -2 -6 -6 -6h-4l13 -10h-9l-12 10h-6v-10zM390 1h-7l16 28h7l16 -28h-7l-4 6h-18zM271 60v56l-27 78h22l15 -48l15 48h22l-27 -78v-56h-20zM369 1h-6v12l-15 16h9l9 -11l10 11h8l-15 -15v-13zM255 80v-20h-55v134l9 8l11 -8v-114h35zM352 1h-29v28h7
v-23h22v-5zM316 1h-28v28h6v-23h22v-5zM186 80v-20h-55v134l9 8l11 -8v-114h35zM275 1h-6v28h6v-28zM249 1h-23v28h25c4 0 6 -2 6 -6v-3c0 -3 -2 -4 -5 -5c3 -1 5 -2 5 -5v-4c0 -3 -3 -5 -8 -5zM204 0h-4l17 36h4zM113 194v-134l-11 -7l-10 7v134h21zM186 0h-4l17 36h4z
M171 29h5c1 0 1 0 2 -1v-9h-10v9c1 1 2 1 3 1zM168 11h10v-10h-9l-1 1v9zM44 60h-37v114l-7 9l7 11h30c23 0 35 -12 35 -37c0 -13 -5 -22 -14 -27c11 -4 17 -15 17 -32c0 -25 -10 -38 -31 -38zM134 1h-7v28h25c5 0 7 -2 7 -6v-6c0 -3 -2 -5 -7 -5h-18v-11zM119 24h-14v-23
h-6v23h-13v5h33v-5zM83 24h-13v-23h-7v23h-13v5h33v-5zM14 1h-7v28h7v-11h21v11h6v-28h-6v12h-21v-12zM625 341l22 14l-48 289h-60l-49 -289l23 -14l22 14l11 66h45l10 -66zM1021 23v-17h23v17h-23zM867 91v73c0 8 -4 12 -11 12c-8 0 -12 -4 -12 -12v-73c0 -8 4 -12 12 -12
c7 0 11 4 11 12zM873 23v-17h22v17h-22zM848 24h-15v-7h15c2 0 3 1 3 2v3c0 1 -1 2 -3 2zM698 23v-17h22v17h-22zM635 24h-15v-6h15c2 0 3 1 3 2v2c0 1 -1 2 -3 2zM635 13h-15v-7h15c2 0 3 1 3 2v3c0 1 -1 2 -3 2zM479 142v20c0 7 -4 11 -11 11h-12v-42h12c7 0 11 4 11 11z
M390 111l-8 52l-7 -52h15zM451 24h-15v-8h15c2 0 3 1 3 2v4c0 1 -1 2 -3 2zM402 24l-6 -12h13zM248 24h-16v-6h16c2 0 3 1 3 2v2c0 1 -1 2 -3 2zM248 13h-16v-7h16c2 0 3 1 3 2v3c0 1 -1 2 -3 2zM29 174v-35h8c9 0 14 6 14 18c0 11 -5 17 -14 17h-8zM149 24h-15v-7h15
c2 0 3 1 3 2v3c0 1 -1 2 -3 2zM29 120v-40h8c11 0 16 6 16 19c0 14 -5 21 -16 21h-8zM552 464l16 114l17 -114h-33z" />
    <glyph glyph-name="CR" horiz-adv-x="166" 
 />
    <glyph glyph-name="space" unicode=" " horiz-adv-x="166" 
 />
    <glyph glyph-name="greater" unicode="&#x3e;" horiz-adv-x="102" 
d="M102 219c0 -23 -18 -54 -55 -92c-56 -59 -124 -95 -205 -110c-47 -9 -107 -13 -178 -13c-41 0 -90 1 -147 4l-127 6c-127 3 -225 2 -294 -3c-109 -8 -197 -21 -263 -40c-31 -9 -58 -20 -83 -34c3 11 12 27 29 49s26 42 27 61c1 13 1 24 -1 32c5 3 13 5 26 8
c90 20 192 30 305 30c41 0 82 -1 122 -3c29 -1 127 -11 294 -29c69 -7 131 -11 185 -11c143 0 243 30 301 90c22 23 33 40 33 51c0 6 -3 11 -9 14c-8 4 -34 -8 -43 -17s-16 -10 -20 -4l-5 8c-2 5 0 11 6 17c21 19 41 29 62 29c27 0 40 -14 40 -43z" />
    <glyph glyph-name="A" unicode="A" horiz-adv-x="695" 
d="M857 680c-5 -7 -14 -22 -28 -46c-38 -65 -76 -139 -113 -220c-43 -96 -74 -174 -91 -233c-2 -7 -6 -15 -13 -25c-4 -3 -8 -5 -12 -6l-57 -7c-7 -1 -11 1 -12 6v16c-1 75 -17 133 -47 175c-105 -92 -191 -150 -258 -174c-30 -10 -59 -15 -86 -15c-16 0 -32 2 -47 5
c-50 12 -80 38 -91 77c-2 9 -3 18 -3 27c0 34 14 68 41 101c25 30 54 52 87 66c20 8 39 13 58 15c41 4 83 -20 87 -60c2 -17 -3 -35 -16 -54c-5 54 -31 79 -79 75c-57 -4 -113 -48 -133 -104c-6 -17 -7 -33 -3 -48c5 -20 18 -36 38 -47c18 -9 38 -14 60 -14
c77 0 182 60 314 180c-21 14 -46 21 -75 21c-31 0 -57 -7 -80 -20c-3 21 13 35 50 44c23 5 48 5 74 0c21 -4 40 -12 55 -23l63 59l109 110l64 64c-29 5 -78 13 -149 26c-23 5 -42 6 -59 5c-29 -2 -54 -9 -76 -21c-27 -15 -43 -34 -48 -59c-4 -21 4 -37 24 -48
c16 -9 35 -12 57 -10c36 4 74 30 87 62c3 6 3 10 1 13c-2 5 -7 8 -14 9c-13 2 -24 -2 -33 -12c-5 -5 -7 -9 -8 -12c-8 5 -9 12 -3 23c12 20 39 34 62 29c15 -3 24 -9 29 -18c5 -10 5 -22 -1 -35c-20 -48 -72 -84 -125 -89c-56 -6 -95 11 -116 50c-7 13 -8 29 -4 47
c11 42 42 74 95 97c41 17 89 25 144 22c19 -1 51 -5 98 -12c41 -6 74 -9 97 -9c19 0 35 2 46 5c16 5 26 7 30 6c10 -1 13 -6 10 -14zM636 398l104 178l-171 -160l-59 -53c27 -29 47 -65 61 -108c21 55 43 103 65 143z" />
    <glyph glyph-name="B" unicode="B" horiz-adv-x="730" 
d="M797 588c0 -31 -24 -62 -72 -95c-32 -21 -69 -38 -112 -50h2h-1c81 -32 122 -75 122 -128c0 -28 -13 -55 -40 -80c-40 -38 -93 -65 -160 -81c-37 -9 -81 -13 -132 -13c-54 0 -103 6 -146 17c-19 -6 -37 -10 -55 -12c-37 -4 -70 -2 -100 5c-11 3 -22 7 -35 13
c-18 9 -28 15 -29 20c-26 24 -39 53 -39 87c0 67 34 113 102 139c19 7 38 9 59 6c47 -7 80 -37 77 -82c-25 31 -51 47 -80 48c-31 2 -59 -8 -82 -30s-35 -49 -35 -80c0 -25 9 -46 26 -62c24 -23 58 -32 102 -29l21 3c-37 21 -60 49 -69 82c-5 18 1 37 18 56c4 5 12 9 24 12
c-1 -7 -2 -13 -2 -20c0 -46 26 -83 79 -112c35 21 67 53 96 97c16 25 36 59 59 102c25 47 44 80 55 99c49 82 99 129 148 140c13 -2 26 -4 37 -7c-7 -5 -16 -13 -25 -23c-34 -37 -75 -102 -124 -195c-47 -90 -89 -154 -126 -192c-17 -17 -34 -32 -53 -43c20 -3 41 -5 63 -5
c29 0 61 3 94 10c43 9 83 26 119 49c47 31 69 65 68 102c-3 60 -45 92 -128 96c-11 1 -17 5 -17 14c1 5 3 8 7 11c2 1 8 2 19 4c76 15 134 41 174 77c25 23 35 44 31 64c-9 43 -59 67 -150 74c-105 7 -188 -10 -249 -51c-27 -18 -40 -36 -40 -55c0 -5 2 -11 5 -18
c8 -13 25 -20 52 -20c39 0 81 21 97 54c3 5 3 9 2 12c-3 5 -8 7 -15 7c-12 0 -34 -10 -37 -21c-3 2 -5 5 -5 8s1 6 4 11l4 5c16 18 34 25 55 21c18 -3 27 -12 27 -26c0 -5 -2 -12 -5 -19c-24 -47 -83 -78 -138 -78c-43 0 -71 14 -85 41c-5 9 -6 20 -4 31c0 27 19 52 56 75
c28 18 58 31 91 39c44 11 89 16 135 16c55 0 107 -8 157 -24c69 -22 103 -54 103 -96z" />
    <glyph glyph-name="C" unicode="C" horiz-adv-x="449" 
d="M544 621c5 -26 3 -52 -4 -77c-21 -73 -66 -128 -135 -167c-15 -8 -29 -14 -44 -18c-27 -7 -53 -4 -78 8c-7 3 -17 10 -32 21c-1 1 -2 2 -3 5c0 2 1 4 3 5c1 0 4 -1 8 -2c9 -1 18 -1 29 0c13 1 25 5 37 11l36 21c69 42 113 101 130 176c5 24 1 41 -12 51
c-17 11 -40 11 -69 1c-47 -16 -104 -52 -169 -108c-28 -24 -55 -51 -82 -81c-65 -73 -97 -142 -97 -208c0 -38 18 -65 54 -81c13 -6 29 -9 46 -9c63 0 138 26 226 79c18 11 36 25 55 42c3 -5 4 -10 4 -15c0 -19 -18 -42 -53 -69c-24 -19 -55 -35 -92 -49
c-49 -19 -95 -28 -138 -28c-47 0 -85 12 -114 35c-31 25 -47 61 -47 107c0 93 45 188 136 286c39 42 80 76 122 101c57 34 112 51 163 51c30 0 56 -7 77 -22c24 -16 38 -38 43 -66z" />
    <glyph glyph-name="D" unicode="D" horiz-adv-x="600" 
d="M671 509c0 -53 -20 -105 -61 -156c-47 -58 -104 -105 -171 -142c-71 -39 -142 -58 -213 -58c-102 0 -173 28 -213 84c-13 18 -19 35 -19 52c19 -27 48 -48 85 -63c34 -14 69 -21 105 -21c68 0 145 26 231 77c45 27 87 62 126 103c49 51 73 98 74 139c1 35 -12 61 -39 79
c-23 15 -52 22 -89 23c-5 0 -12 0 -20 -1c-19 -24 -47 -64 -84 -120c-38 -58 -66 -99 -83 -122c-23 -31 -47 -51 -74 -61c-11 -4 -20 -4 -29 -1c30 50 71 115 122 195c25 38 46 69 65 93c-68 -20 -138 -57 -209 -111c-82 -62 -120 -115 -115 -159c9 -30 38 -44 89 -42
c56 3 109 24 158 64c39 31 61 64 67 97c1 2 1 5 2 9c3 0 6 -1 9 -4c4 -16 6 -30 7 -41c4 -60 -29 -111 -100 -152c-43 -25 -86 -37 -131 -37c-39 0 -72 9 -100 27c-35 23 -51 58 -48 106c2 31 18 65 47 102c81 104 191 170 329 198c21 4 38 7 53 8c33 32 61 48 83 48
c7 0 25 -6 20 -11l-36 -37c49 -7 88 -23 116 -50c31 -29 46 -67 46 -115z" />
    <glyph glyph-name="E" unicode="E" horiz-adv-x="425" 
d="M612 684c5 -31 4 -51 -5 -60c-24 -27 -59 -40 -105 -40c-29 0 -65 7 -108 22c-4 1 -13 5 -26 12c-24 -21 -36 -42 -36 -62c0 -17 9 -32 27 -44c16 -12 33 -18 51 -17c13 0 34 2 64 6l8 1c-3 -31 -34 -43 -94 -37c-109 -14 -206 -48 -291 -102c-29 -19 -46 -40 -51 -63
c-3 -33 21 -58 74 -75c26 -8 52 -12 79 -12c39 0 78 8 117 23c45 17 76 41 93 70l6 9c3 -1 5 -4 7 -8c-2 -18 -5 -33 -8 -44c-9 -32 -27 -57 -52 -75c-13 -9 -28 -17 -47 -25c-37 -15 -76 -23 -116 -23c-82 0 -143 26 -182 79c-13 18 -20 40 -21 65c-2 56 31 105 98 148
c28 18 79 35 154 51c15 3 33 6 54 7c-21 15 -30 36 -29 64c1 36 18 66 51 89l-15 11c-14 14 -21 29 -21 44c0 34 15 50 44 47c28 -2 40 -14 35 -35c-5 13 -15 19 -30 19c-13 0 -21 -7 -24 -20c-4 -20 10 -35 41 -45l17 11c51 35 105 54 161 55c48 1 75 -15 80 -46zM593 680
c-1 5 -8 7 -23 7c-35 1 -70 -4 -104 -15c-10 -3 -33 -12 -69 -26c3 -9 33 -13 90 -12c60 1 95 17 106 46z" />
    <glyph glyph-name="F" unicode="F" horiz-adv-x="525" 
d="M891 654c5 -27 -10 -46 -44 -58c-22 -8 -49 -12 -80 -13c-58 -1 -114 5 -168 18c-32 -37 -69 -96 -112 -178l-1 -3c21 3 44 14 68 33c21 17 35 25 43 23c5 -2 8 -5 8 -10c-1 -7 -13 -22 -35 -45c-14 -14 -27 -33 -40 -57c-13 -26 -21 -48 -22 -65c-7 13 -9 27 -8 43
c1 19 7 38 17 56c-13 -5 -29 -8 -48 -9c-39 -73 -76 -128 -112 -166c-43 -45 -95 -70 -156 -77c-37 -4 -71 -2 -101 5c-37 9 -59 20 -64 33c-25 24 -38 53 -38 87c0 67 34 113 102 139c18 7 37 9 58 6c45 -7 81 -37 77 -82c-25 31 -51 47 -80 48c-31 2 -59 -8 -83 -31
c-23 -22 -35 -48 -35 -79c0 -25 9 -45 28 -62c24 -23 58 -32 102 -29c31 3 58 12 82 28c43 30 90 92 141 186c-30 4 -52 6 -67 6c-9 0 -14 -1 -17 -2c-2 -1 -4 -1 -5 0s-2 2 -2 5c18 8 52 12 102 13c8 15 23 43 46 83c32 55 64 93 95 116c-101 28 -176 42 -223 41
c-32 -1 -61 -7 -86 -19c-32 -15 -50 -36 -55 -63c-5 -24 4 -43 26 -56c19 -11 41 -16 66 -15c40 3 83 28 98 64c3 7 3 12 2 15c-3 6 -9 10 -17 12c-14 2 -26 -2 -37 -12c-5 -5 -8 -9 -9 -14c-9 6 -10 15 -3 27c12 21 45 36 70 29c16 -4 27 -12 33 -23c5 -11 5 -24 -1 -39
c-23 -53 -83 -90 -142 -93c-64 -3 -108 18 -131 64c-9 16 -10 34 -5 53c5 23 19 44 41 64c20 19 42 32 67 41c30 11 66 17 107 17c17 0 36 -1 56 -3c25 -3 76 -11 154 -24l69 -12c100 -17 178 -25 235 -23c11 1 23 3 34 7z" />
    <glyph glyph-name="G" unicode="G" horiz-adv-x="675" 
d="M818 576c2 -7 -13 -35 -45 -83c-21 -34 -56 -90 -106 -167c-30 -45 -71 -104 -122 -177c-51 -72 -93 -126 -127 -162c-57 -61 -112 -99 -164 -114c-36 -10 -73 -11 -110 -4c-18 3 -42 13 -71 30c-34 19 -51 36 -52 50c-13 21 -20 45 -21 71c-1 39 12 72 38 101
c27 29 59 46 97 49c19 1 39 -1 59 -8c15 -2 29 -13 43 -32c15 -19 22 -36 22 -51c0 -9 -2 -19 -7 -28c-26 57 -63 83 -111 78c-57 -5 -102 -54 -101 -111c0 -18 5 -35 14 -50c27 -42 68 -63 123 -63c73 0 150 50 232 151c10 12 41 55 94 130l14 21
c-67 -47 -131 -70 -191 -70c-85 0 -146 50 -155 134c-8 73 18 153 77 239c21 31 48 62 79 91c87 82 182 123 285 123c69 0 112 -20 128 -60c-27 16 -60 24 -100 24c-104 0 -203 -57 -297 -170c-39 -47 -70 -99 -92 -156c-13 -33 -19 -62 -19 -87c0 -44 20 -74 59 -90
c14 -6 32 -7 53 -4c17 3 33 7 50 13c87 32 170 107 247 224c26 39 44 76 55 110c9 29 9 52 -1 69c-10 13 -24 19 -42 19c-35 0 -72 -16 -113 -49c-58 -47 -91 -99 -99 -157c-1 -10 -1 -20 0 -29c1 -4 2 -7 2 -9c-1 -1 -3 -2 -5 -2c-3 0 -4 1 -5 3c-21 27 -31 54 -31 81
c0 23 7 47 21 72c39 71 95 116 167 136c24 7 50 8 77 3c53 -9 89 -59 86 -114c11 6 27 16 48 31c11 1 16 -1 17 -6z" />
    <glyph glyph-name="H" unicode="H" horiz-adv-x="651" 
d="M854 694c-19 -21 -45 -57 -77 -108c-46 -74 -121 -209 -224 -406c-23 -43 -48 -66 -77 -70c-6 -1 -12 1 -17 4l5 10l7 16c12 23 25 54 40 95c4 31 -5 67 -28 109c-7 12 -13 23 -20 32c-32 -58 -57 -99 -74 -123c-34 -46 -68 -79 -101 -98c-23 -13 -54 -22 -93 -27
c-38 -5 -70 -3 -97 4c-8 2 -19 7 -34 14c-17 8 -27 14 -29 19c-25 23 -37 51 -37 84c0 64 33 109 99 135c17 7 36 9 57 6c44 -7 78 -36 75 -79c-24 29 -50 45 -78 46c-30 1 -57 -9 -80 -30s-34 -47 -34 -77c0 -24 9 -44 26 -60c23 -22 56 -31 99 -28c61 5 115 43 162 114
c17 27 46 77 86 152c-21 13 -46 18 -73 17c-51 -3 -94 -21 -129 -55c-1 3 -2 7 -2 10c0 19 17 37 52 55c27 14 55 22 86 24c29 2 58 -3 85 -16l48 88c17 28 32 51 47 69l-26 5l-129 23c-23 5 -43 6 -59 5c-29 -3 -55 -10 -76 -21c-27 -15 -43 -34 -48 -59
c-4 -21 4 -37 23 -48c17 -9 36 -12 58 -10c42 5 71 25 87 62c3 5 3 10 1 13c-3 5 -7 8 -14 9c-12 2 -23 -2 -33 -12c-5 -5 -7 -9 -8 -12c-8 4 -9 12 -3 23c11 20 41 33 62 29c15 -3 24 -9 29 -18c5 -10 5 -22 -1 -35c-20 -48 -73 -85 -125 -90c-23 -2 -45 1 -66 9
c-23 9 -40 23 -50 42c-7 13 -9 29 -4 47c5 20 17 39 37 58c17 17 37 30 58 39c39 17 87 24 144 21c23 -1 55 -5 96 -11c43 -7 76 -10 97 -10c1 1 22 4 61 10l-1 -1c21 0 29 -2 24 -7c-7 -5 -16 -13 -25 -23c-35 -39 -74 -99 -117 -181l-29 -56c29 -33 50 -73 62 -120
c58 117 115 219 172 307c43 65 80 98 111 98c7 0 26 -5 22 -12z" />
    <glyph glyph-name="I" unicode="I" horiz-adv-x="450" 
d="M663 717c3 -9 -8 -35 -33 -76l-50 -83l-94 -162c-39 -66 -73 -115 -100 -148c-46 -55 -92 -90 -139 -104c-32 -9 -65 -11 -100 -4c-19 4 -42 13 -69 27c-32 17 -49 32 -52 46c-15 19 -23 41 -26 64c-7 57 13 98 60 123c15 8 31 13 48 14c19 2 38 0 55 -6
c12 -2 26 -11 41 -26c18 -18 27 -37 27 -56c0 -7 -1 -13 -4 -20c-29 53 -66 77 -109 72c-53 -5 -88 -49 -81 -102c2 -17 8 -33 18 -46c27 -38 67 -57 120 -57c66 0 131 46 195 138c10 15 35 54 74 118c25 50 53 105 86 165l14 25l-89 -8c-71 -10 -119 -32 -146 -67
c-12 -15 -18 -31 -18 -48c0 -27 13 -47 39 -59c10 -5 20 -7 29 -7c21 0 41 8 61 25c14 11 21 18 22 21l-6 -2c-12 -19 -22 -34 -31 -44c-17 -19 -33 -29 -50 -31c-29 -3 -56 5 -80 26c-19 17 -29 41 -29 73c0 39 19 74 56 105c31 25 68 44 111 55c12 3 47 10 104 19
c43 7 77 16 103 26l30 20c7 2 11 0 13 -6z" />
    <glyph glyph-name="J" unicode="J" horiz-adv-x="586" 
d="M818 711c3 -9 -12 -36 -45 -82l-29 -46c-69 -110 -135 -209 -199 -298c-43 -59 -81 -109 -114 -148c-91 -108 -187 -152 -287 -132c-20 4 -44 14 -72 29c-33 18 -50 35 -51 51c-13 21 -20 45 -21 71c-1 56 31 109 80 134c16 8 34 13 55 15s40 0 59 -7
c15 -2 29 -13 43 -32c15 -19 22 -36 22 -51c0 -10 -2 -19 -7 -28c-26 57 -63 83 -111 78c-57 -5 -102 -54 -101 -111c0 -18 5 -35 14 -50c27 -42 68 -63 123 -63c73 0 150 50 232 151l94 129c16 22 68 107 157 254c-60 -10 -99 -17 -116 -21c-87 -19 -148 -49 -184 -89
c-24 -27 -36 -54 -36 -81c0 -29 14 -49 41 -61c9 -4 19 -6 29 -6c26 0 54 13 84 38c19 16 29 26 30 29l1 1c4 0 2 -10 -6 -30c-9 -24 -28 -43 -55 -58c-25 -14 -51 -21 -79 -21c-61 0 -101 39 -101 99c0 53 26 103 78 148c41 37 92 65 151 86c20 7 59 17 116 30
c85 19 147 46 188 79c11 1 16 -2 17 -7z" />
    <glyph glyph-name="K" unicode="K" horiz-adv-x="614" 
d="M882 717c1 -4 0 -4 -37 -21c-27 -13 -50 -33 -69 -61c-5 -8 -20 -33 -44 -76c-40 -71 -99 -120 -177 -145v-1c33 -17 50 -40 51 -69c0 -7 -1 -15 -3 -23l-5 -18c-7 -25 -11 -51 -13 -79c-1 -25 -1 -48 0 -70c4 -53 16 -100 37 -141c27 -54 64 -81 110 -81
c44 0 90 25 110 62c4 -8 6 -16 6 -23c0 -20 -13 -38 -38 -55c-21 -13 -42 -21 -65 -25c-8 -1 -16 -2 -23 -2c-69 0 -121 42 -156 127c-21 51 -33 109 -34 173c-1 55 6 113 20 174c2 15 -3 25 -15 31c-7 4 -20 6 -38 7c-8 1 -17 2 -26 5c-38 -70 -66 -118 -84 -143
c-33 -46 -67 -79 -101 -98c-23 -13 -54 -22 -93 -27c-38 -5 -70 -3 -97 4c-6 1 -18 6 -35 14s-27 14 -28 19c-25 23 -37 51 -37 84c0 64 33 109 99 135c18 7 37 9 57 6c53 -8 78 -34 75 -79c-24 29 -50 44 -78 46c-30 2 -57 -8 -80 -29s-34 -47 -34 -77c0 -25 9 -45 26 -61
c23 -22 56 -31 99 -28c61 5 115 43 162 114c17 26 44 72 79 139c41 76 65 121 74 136c19 31 36 56 52 75c-28 5 -77 13 -147 26c-23 5 -43 6 -59 5c-28 -2 -54 -9 -77 -21c-28 -15 -44 -35 -48 -59c-3 -21 5 -37 24 -48c17 -9 36 -12 58 -10c36 4 73 30 86 62c3 6 3 10 2 13
c-3 5 -8 8 -15 9c-12 2 -23 -2 -32 -12c-5 -5 -8 -9 -9 -12c-7 5 -8 12 -2 23c12 20 39 34 62 29c14 -3 23 -9 28 -18s4 -21 -1 -35c-20 -49 -70 -84 -125 -89c-23 -3 -45 0 -65 8c-23 9 -40 23 -50 42c-8 15 -10 30 -5 47c11 42 43 74 95 97c41 17 89 25 144 22
c18 -1 49 -5 94 -12c40 -6 72 -9 95 -9c11 0 46 5 61 4c14 -2 19 -4 15 -7c-37 -27 -85 -95 -142 -204l-30 -57c3 1 10 1 22 2c3 0 10 0 20 1c45 6 84 40 118 102c55 101 119 160 193 178c19 5 31 7 37 6c3 0 5 -1 6 -2z" />
    <glyph glyph-name="L" unicode="L" horiz-adv-x="438" 
d="M945 89c-11 -24 -40 -44 -87 -59c-36 -11 -71 -18 -106 -21c-107 -7 -206 12 -299 59c-47 23 -96 48 -147 74c-19 10 -43 20 -71 29c-33 -29 -66 -46 -99 -49c-11 -1 -24 -2 -38 -1c-57 2 -90 17 -97 46c-4 16 1 30 16 41c19 15 48 22 85 21c31 -1 65 -4 100 -10
c13 16 27 34 41 55c19 29 57 95 114 199c-20 7 -48 21 -85 41s-65 34 -84 41c-21 8 -40 12 -56 13c-25 1 -43 -6 -54 -19c-2 3 -3 6 -3 9c0 19 17 35 50 48c25 9 52 9 81 0c16 -5 36 -16 59 -31c36 -27 74 -54 110 -70l38 68c48 80 94 128 137 144c21 8 39 12 54 13
c61 3 99 -36 94 -99c-6 -69 -50 -119 -132 -152c-45 -18 -91 -25 -140 -22c-59 -109 -100 -179 -122 -209c-10 -13 -21 -28 -34 -43c27 -7 65 -21 115 -42c59 -24 102 -41 129 -51c49 -17 93 -30 134 -38l2 -1c70 -12 126 -16 167 -11c46 5 81 15 106 29c6 3 9 7 10 12v3
c3 3 7 2 12 -5c2 -3 2 -7 0 -12zM659 641c9 39 -19 64 -56 53c-29 -9 -59 -35 -88 -80l-70 -122l-4 -7c51 -9 104 13 159 66c33 31 52 61 59 90zM179 187c-48 12 -82 17 -102 16c-27 -2 -40 -11 -40 -27s11 -25 33 -27c19 -2 39 0 60 7c25 7 41 17 49 31z" />
    <glyph glyph-name="M" unicode="M" horiz-adv-x="874" 
d="M1095 -13c8 -19 6 -37 -7 -55c-11 -15 -26 -26 -46 -35c-23 -10 -45 -15 -67 -15c-69 0 -121 42 -157 127c-22 52 -33 113 -33 182c0 143 45 287 135 430c-102 -85 -209 -233 -321 -446c-5 -9 -9 -13 -13 -13h-42c-11 0 -15 5 -13 15l3 15c13 78 35 190 65 337l-81 -105
c-89 -114 -162 -189 -219 -225c-43 -27 -86 -41 -130 -42c-15 0 -29 2 -44 5c-52 11 -89 36 -110 75c-11 20 -16 42 -15 66c2 37 16 68 42 95s57 42 94 45c19 2 38 0 55 -7c13 -2 26 -11 37 -28c12 -17 18 -32 18 -46c0 -10 -3 -20 -8 -29c-21 53 -54 77 -99 73
c-55 -5 -98 -50 -101 -105c-1 -18 2 -33 10 -46c21 -39 58 -59 112 -59c68 0 143 47 224 141c15 17 47 58 97 121c31 41 67 93 108 155c-93 15 -149 25 -169 29c-23 5 -45 6 -66 4c-32 -3 -58 -11 -78 -26c-25 -18 -35 -42 -32 -71c3 -25 16 -44 39 -57
c21 -11 44 -14 70 -11c39 5 71 36 75 75c1 16 -6 25 -23 27c-13 1 -24 -4 -31 -15c-4 -7 -6 -12 -5 -15c-11 5 -14 14 -11 28c5 24 34 41 58 36c36 -7 52 -29 49 -64c-5 -57 -50 -101 -107 -109c-49 -7 -91 7 -128 40c-24 22 -37 47 -38 74c-1 17 4 37 15 59
c30 63 99 92 208 88c18 -1 57 -5 117 -14c47 -7 86 -9 117 -7c21 1 35 5 44 11c5 3 9 5 12 4c6 0 9 -2 10 -6c0 -3 -1 -7 -4 -13c-7 -15 -12 -31 -16 -46c-30 -113 -55 -222 -74 -326c128 208 248 342 360 402c13 7 24 12 33 15c17 6 28 5 33 -3c2 -3 1 -8 -2 -14
c-17 -21 -30 -36 -40 -46c-48 -63 -88 -140 -119 -229c-33 -91 -49 -175 -49 -252c0 -67 13 -125 38 -175c27 -54 64 -81 109 -81c44 0 91 25 111 62z" />
    <glyph glyph-name="N" unicode="N" horiz-adv-x="698" 
d="M1289 545c-1 -6 -6 -12 -15 -17c-13 37 -36 66 -69 87c-31 19 -67 30 -108 32c-162 9 -310 -115 -444 -372c-11 -21 -30 -57 -59 -109c-2 -3 -5 -4 -8 -4h-42c-10 0 -14 5 -13 15c19 126 42 243 68 352l-81 -105c-52 -67 -95 -118 -128 -151c-58 -57 -112 -93 -161 -107
c-35 -9 -69 -11 -104 -4c-52 11 -89 36 -110 75c-11 20 -16 42 -15 66c2 37 16 68 42 95s57 42 94 45c19 2 38 0 55 -7c13 -2 26 -11 37 -28c12 -17 18 -32 18 -46c0 -10 -3 -20 -8 -29c-21 53 -54 77 -99 73c-55 -4 -98 -50 -101 -105c-1 -18 2 -33 10 -46
c21 -39 58 -59 112 -59c69 0 144 47 225 141c23 27 55 67 96 121l108 155c-65 11 -121 20 -169 29c-24 5 -46 6 -66 4c-32 -3 -58 -11 -78 -26c-25 -18 -35 -42 -32 -71c3 -25 16 -44 39 -57c21 -11 44 -14 70 -11c39 5 71 36 75 75c1 16 -6 25 -23 27c-13 1 -24 -4 -31 -15
c-4 -7 -6 -12 -5 -15c-11 5 -14 14 -11 28c5 24 34 41 58 36c36 -7 52 -29 49 -64c-7 -67 -62 -110 -129 -110c-30 0 -59 8 -86 25c-37 23 -56 53 -58 90c-1 17 4 36 15 59c30 63 99 92 208 88c14 -1 56 -6 126 -15c51 -7 93 -8 126 -5c3 1 13 5 30 13c3 1 6 2 9 1
c5 0 8 -2 9 -6l-12 -32c-3 -7 -7 -21 -12 -41c-27 -103 -50 -203 -67 -300c134 225 274 346 420 363c19 2 37 3 55 2c68 -3 120 -25 157 -64c26 -27 37 -53 33 -76z" />
    <glyph glyph-name="O" unicode="O" horiz-adv-x="483" 
d="M530 398c-27 -47 -66 -93 -115 -138c-90 -82 -176 -123 -259 -123c-87 0 -145 49 -154 134c-8 74 17 154 76 239c21 31 48 62 79 91c78 74 164 115 259 122c85 7 136 -13 154 -59c-27 16 -60 24 -99 24c-104 0 -203 -57 -297 -170c-39 -47 -70 -99 -92 -156
c-13 -33 -19 -62 -19 -87c0 -44 19 -74 58 -90c15 -6 33 -7 54 -4c15 3 32 7 49 13c87 31 169 106 248 224c25 38 44 75 55 110c9 30 9 53 -2 69c-9 13 -22 19 -41 19c-35 0 -73 -16 -114 -49c-57 -46 -90 -98 -98 -157c-1 -10 -1 -20 0 -29c1 -4 2 -7 1 -9
c-1 -1 -2 -2 -5 -2c-2 0 -3 1 -4 3c-21 27 -32 54 -32 81c0 23 7 47 21 72c39 71 95 116 167 136c25 7 51 8 78 3c51 -9 86 -57 86 -109c0 -45 -18 -97 -54 -158z" />
    <glyph glyph-name="P" unicode="P" horiz-adv-x="651" 
d="M781 513c0 -61 -43 -116 -129 -165c-74 -42 -140 -62 -198 -60c-11 0 -26 1 -29 10c0 9 7 14 20 16c85 11 155 46 212 104c40 41 59 79 56 115c-3 43 -29 77 -80 100c-11 -9 -19 -16 -26 -23c-35 -37 -76 -102 -124 -193s-90 -156 -126 -194c-43 -45 -95 -70 -156 -77
c-37 -4 -71 -2 -101 5c-8 2 -20 7 -35 14c-17 8 -27 14 -29 19c-25 24 -38 53 -38 87c0 65 34 112 102 139c18 7 37 9 58 6c47 -7 81 -37 77 -82c-25 31 -51 47 -80 48c-31 2 -58 -8 -82 -31c-23 -22 -35 -48 -35 -79c0 -25 9 -45 27 -62c24 -23 58 -32 102 -29
c63 5 118 45 167 118c15 23 35 57 59 102l54 99c59 98 115 145 167 141c-38 13 -79 20 -124 20c-19 0 -39 -1 -60 -4c-69 -9 -127 -32 -173 -69c-36 -29 -54 -60 -54 -93c0 -6 0 -11 1 -15c5 -26 26 -39 63 -39c49 0 95 34 116 81c3 7 5 13 4 17c-3 9 -8 13 -17 13
c-17 0 -41 -17 -45 -33c-8 6 -7 17 2 32c15 26 36 39 61 39c20 0 32 -9 37 -27c3 -13 1 -28 -8 -46c-15 -33 -38 -60 -67 -82c-31 -24 -64 -36 -98 -36c-55 0 -101 39 -101 94c0 8 1 16 3 24c3 29 18 59 45 89c63 69 156 103 279 103c67 0 128 -13 183 -38
c69 -31 109 -76 118 -133c1 -9 2 -17 2 -25z" />
    <glyph glyph-name="Q" unicode="Q" horiz-adv-x="483" 
d="M535 398c-27 -47 -66 -93 -116 -138c-91 -82 -177 -123 -259 -123c-85 0 -145 50 -154 134c-9 72 17 152 76 239c19 29 46 59 80 91c78 74 164 115 258 122c83 7 135 -13 155 -59c-27 16 -61 24 -100 24c-104 0 -203 -57 -297 -170c-39 -47 -70 -99 -92 -156
c-13 -33 -19 -62 -19 -87c0 -44 20 -74 59 -90c15 -6 32 -7 53 -4c15 3 32 7 49 13c87 31 169 106 248 224c25 38 44 75 55 110c9 29 9 52 -1 69c-10 13 -24 19 -42 19c-35 0 -73 -16 -114 -49c-57 -46 -90 -98 -98 -157c-1 -10 -1 -20 0 -29c1 -4 2 -7 2 -9
c-1 -1 -3 -2 -5 -2c-3 0 -4 1 -5 3c-21 27 -32 54 -32 81c0 23 7 47 21 72c39 71 95 116 167 136c25 7 51 8 78 3c51 -8 86 -56 86 -109c0 -44 -18 -97 -53 -158zM768 84l-5 -3v1c-11 -5 -28 -9 -49 -14c-38 -8 -82 -12 -131 -12c-78 0 -168 11 -270 34
c-71 16 -130 22 -176 19c-24 -2 -45 -5 -62 -10l-47 -15c-6 -2 -11 -3 -16 -3c-4 0 -8 2 -12 5c1 5 9 10 24 17c50 21 122 32 215 32c69 0 136 -7 200 -21c107 -23 181 -35 222 -35c18 2 51 5 98 8c4 0 7 -1 9 -3z" />
    <glyph glyph-name="R" unicode="R" horiz-adv-x="587" 
d="M781 532c0 -55 -43 -104 -129 -149c-45 -23 -92 -40 -142 -49l1 -1l-1 1l4 -3h-2v-2c20 -11 33 -27 39 -47c3 -12 2 -25 -4 -40c-9 -18 -20 -48 -34 -90c-8 -33 -12 -66 -12 -99c0 -48 8 -88 25 -121c21 -42 54 -63 98 -63c47 0 84 16 110 49c1 -5 2 -10 2 -15
c0 -18 -12 -34 -37 -48c-24 -15 -50 -23 -78 -24c-59 -3 -103 20 -134 70c-25 41 -38 92 -38 154c0 71 17 147 52 228c2 7 3 12 2 17c-3 11 -19 18 -49 23c-4 0 -11 1 -20 3c-45 -75 -91 -125 -138 -152c-25 -15 -57 -24 -95 -28c-37 -4 -71 -2 -101 5c-37 9 -59 20 -64 33
c-25 24 -38 53 -38 87c0 66 34 112 102 139c18 7 37 9 58 6c47 -7 81 -37 77 -82c-25 31 -51 47 -80 48c-31 2 -58 -8 -82 -31c-23 -22 -35 -48 -35 -79c0 -25 9 -45 27 -62c24 -23 58 -32 102 -29c63 5 118 45 167 118c15 23 35 57 59 102l54 99c39 65 78 108 116 128
c10 5 21 9 32 12c13 -2 26 -4 38 -7c-34 -24 -71 -73 -112 -147l-71 -133c79 9 148 40 205 91c41 37 61 72 58 106c-5 61 -59 98 -163 111c-41 5 -81 5 -120 1c-69 -7 -127 -28 -173 -62c-36 -27 -54 -55 -54 -84c0 -23 13 -39 39 -46c9 -3 18 -4 25 -4c47 0 95 31 116 74
c3 7 5 12 4 15c-3 8 -8 12 -17 12c-16 0 -41 -14 -45 -29c-8 5 -7 15 2 28c16 23 36 35 61 35c20 0 32 -8 37 -24c3 -11 1 -25 -8 -42c-32 -60 -100 -106 -165 -106c-32 0 -58 11 -79 32c-15 15 -22 33 -22 52c0 7 1 15 3 23c3 26 18 53 45 80c62 62 155 93 279 93
c69 0 133 -12 190 -37c75 -33 113 -79 113 -140z" />
    <glyph glyph-name="S" unicode="S" horiz-adv-x="578" 
d="M642 630c-1 -18 -16 -39 -46 -64c-17 -15 -37 -34 -59 -57c-9 9 -20 38 -17 50c3 5 8 11 17 20c25 24 38 45 40 64c2 15 -4 29 -18 40c-11 10 -25 16 -42 19c-7 1 -18 2 -33 1c-55 -1 -103 -41 -103 -96c0 -24 8 -46 25 -66l93 -105c39 -46 58 -87 58 -123
c0 -55 -36 -101 -109 -138c-61 -31 -133 -46 -216 -46c-49 0 -93 7 -134 20c-55 18 -87 46 -96 84c-1 8 -2 16 -2 23c0 42 25 80 76 114c57 38 121 57 192 56c27 0 50 -5 71 -14c27 -12 41 -29 41 -52c0 -17 -12 -31 -35 -41c-13 -6 -26 -9 -37 -9c-5 0 -9 0 -14 1
c14 13 21 25 21 38c0 3 -1 6 -2 9c-12 19 -34 29 -67 31c-77 5 -132 -20 -163 -75c-11 -20 -15 -41 -12 -64c8 -51 55 -81 142 -90c13 -1 26 -2 38 -2c101 0 169 38 204 115c5 11 8 23 8 35c0 31 -19 68 -56 111c-25 29 -53 64 -82 104c-13 23 -19 44 -19 64
c0 30 11 58 32 85c30 37 77 57 142 59c57 2 102 -11 134 -39c20 -17 29 -38 28 -62z" />
    <glyph glyph-name="T" unicode="T" horiz-adv-x="451" 
d="M955 701c1 -3 1 -6 1 -9c0 -39 -45 -64 -135 -74c-25 -3 -56 -4 -93 -4c-31 0 -66 3 -107 9c-35 -30 -75 -89 -122 -177c-46 -87 -79 -144 -98 -171c-34 -47 -69 -80 -105 -101c-25 -15 -57 -24 -95 -28c-37 -4 -71 -2 -101 5c-37 9 -59 20 -64 33c-25 24 -38 53 -38 87
c0 67 34 113 102 139c19 7 38 9 58 6c47 -7 81 -37 77 -82c-25 31 -51 47 -80 48c-31 2 -58 -8 -82 -31c-23 -22 -35 -48 -35 -79c0 -25 9 -45 27 -62c24 -23 58 -32 102 -29c63 5 118 45 167 118c15 23 35 57 59 102l54 99c42 70 83 114 123 132c-81 14 -146 21 -195 21
c-52 0 -96 -9 -132 -28c-41 -21 -61 -48 -61 -81c0 -21 12 -36 36 -45c19 -7 41 -8 64 -5c45 5 90 34 107 73c3 7 3 12 1 15c-3 6 -9 9 -18 10c-15 1 -28 -4 -40 -15c-6 -6 -9 -11 -10 -15c-10 5 -11 14 -3 27c13 21 51 39 76 35c17 -3 28 -9 35 -20s6 -24 -1 -39
c-25 -56 -90 -99 -153 -107c-27 -3 -53 -1 -79 7c-30 9 -51 24 -63 45c-9 17 -11 34 -6 53c7 23 22 46 47 69c21 20 45 35 70 46c49 21 108 31 177 30c32 -1 87 -4 166 -10l75 -6l95 -6c61 -2 114 0 161 5c12 1 24 5 36 10z" />
    <glyph glyph-name="U" unicode="U" horiz-adv-x="465" 
d="M614 673c0 -18 -5 -36 -15 -55c-94 -176 -158 -305 -191 -386c-23 -55 -35 -94 -38 -116c-1 -1 -2 -1 -4 -1c-19 0 -31 12 -37 35c-5 17 -5 36 -2 56c1 10 3 18 5 24c-51 -46 -97 -70 -136 -72c-35 -1 -61 10 -76 35c-9 13 -13 28 -13 43c0 30 14 68 41 113
c8 14 25 40 52 78c22 32 39 59 51 81c17 33 26 64 25 94c-1 22 -10 44 -28 65c-25 30 -55 48 -89 55c-18 3 -35 2 -51 -2c-42 -11 -65 -34 -68 -68c-3 -30 10 -54 37 -71c21 -13 48 -21 81 -23c-16 -9 -34 -13 -53 -12c-23 2 -45 11 -66 27c-29 23 -42 51 -39 84
c3 29 18 53 46 72c25 17 53 25 84 25c11 0 22 -1 33 -3c48 -9 88 -32 120 -70c32 -37 46 -80 43 -128c-2 -31 -12 -66 -31 -103c-11 -22 -30 -54 -55 -95l-58 -91c-14 -23 -20 -40 -17 -51c2 -9 10 -14 23 -16c26 -3 62 14 109 53c39 33 64 62 77 89c57 123 128 253 213 390
c18 -9 27 -28 27 -56z" />
    <glyph glyph-name="V" unicode="V" horiz-adv-x="459" 
d="M1095 547c-8 39 -28 69 -61 91c-29 19 -64 30 -106 33c-105 6 -212 -43 -320 -148c-81 -79 -169 -194 -262 -344c-7 -12 -13 -18 -18 -18h-43c-10 0 -14 5 -11 14c43 148 92 291 146 428l4 9c-3 0 -6 0 -9 1l-14 3l-163 27c-25 5 -47 6 -66 4c-31 -3 -58 -11 -80 -25
c-27 -17 -40 -39 -41 -67c-1 -25 10 -43 33 -54c19 -11 41 -14 66 -11c39 4 75 35 84 72c3 15 -3 23 -19 25c-13 1 -24 -3 -33 -14c-5 -6 -7 -11 -7 -15c-9 5 -12 14 -7 27c9 23 38 39 62 34c29 -6 43 -20 43 -43c0 -31 -16 -60 -47 -87c-23 -19 -48 -31 -77 -34
c-26 -3 -51 0 -75 9c-27 10 -47 25 -60 46c-11 17 -16 35 -14 54c1 15 9 34 23 56c37 59 110 86 218 83c21 -1 49 -4 86 -9c41 -6 69 -10 85 -11c15 -1 38 0 67 3c27 3 40 4 39 5c-13 -41 -34 -101 -63 -179c-30 -81 -51 -141 -64 -180c71 97 138 174 203 231
c119 104 233 153 342 147c70 -4 121 -26 153 -67c18 -23 27 -44 27 -63c0 -16 -7 -27 -21 -33z" />
    <glyph glyph-name="W" unicode="W" horiz-adv-x="663" 
d="M1296 543c-9 39 -29 69 -62 91c-29 19 -64 30 -106 33c-106 6 -213 -43 -320 -147c-62 -60 -127 -140 -194 -240c-14 -20 -39 -56 -74 -109l-1 -2c-3 -5 -7 -7 -12 -7h-43c-9 0 -13 5 -10 15l59 170c24 69 48 124 71 165c-63 -63 -150 -177 -259 -340l-2 -3
c-4 -5 -8 -7 -12 -7h-43c-9 0 -13 5 -10 15c43 150 93 297 150 440c-2 -1 -5 -1 -9 -1c-31 -1 -91 7 -180 26c-22 5 -44 6 -65 4c-33 -3 -60 -11 -82 -26c-27 -17 -40 -41 -41 -71c-1 -25 10 -44 32 -57c19 -11 42 -14 67 -11c40 5 76 36 85 75c4 16 -2 25 -18 27
c-14 1 -25 -4 -34 -15c-5 -6 -7 -11 -7 -15c-10 5 -12 14 -7 28c8 23 39 41 63 36c28 -5 42 -20 42 -45c0 -6 -1 -12 -2 -19c-13 -57 -63 -101 -122 -109c-26 -3 -51 0 -76 10c-27 11 -47 27 -60 48c-11 18 -16 37 -14 56c1 15 9 35 24 59c38 63 111 92 219 88
c13 -1 55 -6 124 -15c51 -7 93 -8 126 -5c1 0 6 1 16 4c8 3 13 3 14 2s2 -2 2 -4c0 -4 -3 -11 -8 -21l-1 -3l-1 -1l-3 -8c-30 -77 -71 -188 -122 -333c95 129 185 228 269 296l34 30c3 1 5 0 5 -3v-7c-1 -8 -6 -22 -14 -42c-32 -79 -64 -170 -97 -272
c73 100 142 179 207 236c119 104 233 153 342 147c71 -4 123 -26 154 -67c17 -23 26 -43 26 -62c0 -15 -7 -27 -20 -34z" />
    <glyph glyph-name="X" unicode="X" horiz-adv-x="581" 
d="M858 669c-15 5 -32 8 -51 8c-33 0 -67 -8 -103 -24c-71 -31 -134 -98 -187 -201c-31 -60 -47 -109 -47 -147c0 -23 5 -44 14 -63c20 -43 51 -72 92 -88c-17 -1 -33 1 -49 7c-67 25 -102 77 -105 154c-81 -88 -171 -136 -268 -143c-78 -6 -126 12 -144 55
c25 -15 56 -23 93 -23c95 0 187 53 275 159c37 44 65 92 85 144c12 31 18 58 18 81c0 41 -18 68 -55 83c-13 5 -30 7 -49 4c-49 -7 -102 -35 -161 -86c-41 -35 -79 -79 -115 -134c-23 -35 -39 -68 -50 -101c-9 -27 -8 -49 1 -65c9 -11 22 -17 39 -17c32 0 67 15 105 45
c53 43 84 91 91 146c1 9 1 18 0 27c-1 3 -2 6 -1 8c1 1 2 2 4 2c3 -1 4 -2 4 -3c20 -25 30 -50 30 -75c0 -21 -7 -44 -20 -67c-37 -66 -88 -108 -154 -126c-23 -6 -47 -7 -72 -3c-47 8 -80 53 -80 102c0 42 16 91 49 147c25 43 61 85 108 127c85 76 164 114 239 114
c83 0 139 -50 144 -133c45 49 99 85 163 110c23 9 45 13 68 13c43 0 72 -12 89 -37z" />
    <glyph glyph-name="Y" unicode="Y" horiz-adv-x="617" 
d="M850 695c1 -7 -14 -34 -46 -82l-106 -167c-12 -19 -49 -74 -112 -163l-41 -57c-44 -61 -82 -110 -114 -148c-93 -109 -188 -153 -287 -133c-25 5 -49 15 -72 30c-15 10 -32 27 -51 50c-13 21 -20 45 -21 71c-1 56 31 109 80 134c17 9 36 14 55 16c20 2 40 0 59 -7
c15 -3 30 -14 44 -33s21 -36 21 -51c0 -9 -2 -18 -7 -27c-26 57 -63 83 -111 78c-29 -3 -53 -15 -73 -36c-19 -21 -29 -47 -28 -76c0 -18 5 -35 14 -50c26 -41 67 -62 123 -62c81 0 169 64 264 192c-21 -10 -39 -15 -54 -16c-35 -1 -60 10 -77 35c-8 11 -12 26 -12 44
c0 35 18 79 54 132c18 27 48 73 90 139c17 29 25 60 24 94c-1 23 -10 44 -27 65c-25 30 -55 48 -90 55c-7 1 -13 2 -19 2c-40 0 -69 -14 -88 -43c-7 -10 -10 -20 -11 -29c-2 -23 6 -44 25 -61c16 -15 36 -24 61 -29c11 -2 21 -3 32 -4c-17 -9 -35 -13 -54 -12s-39 9 -59 22
s-33 29 -39 46c-5 15 -7 29 -6 43c4 46 34 76 91 91c13 3 28 5 43 4c19 -1 28 -2 29 -1c48 -9 88 -32 120 -70c32 -37 46 -80 43 -128c-3 -31 -13 -65 -31 -103c-12 -24 -30 -56 -55 -95c-13 -20 -33 -50 -58 -91c-14 -24 -20 -41 -18 -51c3 -9 10 -15 23 -16
c29 -4 61 11 98 46c27 25 51 54 72 87c21 31 54 83 100 155c16 29 43 75 82 138c10 16 26 31 48 44c31 19 49 30 54 35c11 1 17 -2 18 -7z" />
    <glyph glyph-name="Z" unicode="Z" horiz-adv-x="457" 
d="M944 120c2 -3 1 -7 -3 -11c-21 -23 -56 -41 -105 -54c-37 -10 -77 -16 -118 -18c-111 -5 -207 13 -288 56c-29 16 -73 40 -131 73c-13 7 -35 16 -64 27c-55 -33 -108 -47 -159 -44c-17 1 -31 4 -42 7c-23 8 -35 20 -34 37c1 15 10 27 28 38c15 9 31 14 48 17
c12 2 25 2 40 1c36 -3 67 -6 92 -9c18 13 38 30 59 51c27 27 71 73 131 140c65 73 107 119 126 138c25 26 47 47 66 64c-38 6 -87 15 -146 26c-21 4 -41 5 -58 4c-29 -3 -54 -11 -76 -24c-25 -16 -40 -37 -43 -63c-3 -23 5 -40 24 -51c16 -9 36 -13 59 -10c36 4 71 32 83 67
c2 6 2 11 0 14c-3 6 -8 9 -15 10c-12 1 -22 -3 -31 -14c-5 -6 -7 -10 -8 -13c-8 5 -9 13 -4 25c9 21 37 36 60 32c23 -5 34 -16 34 -35c0 -7 -1 -14 -4 -22c-16 -51 -66 -91 -118 -98c-23 -3 -46 0 -67 9c-23 9 -40 24 -50 44c-8 15 -10 32 -7 50c3 15 11 33 26 53
c40 55 108 81 204 78c13 -1 49 -5 110 -13c45 -6 82 -7 111 -4c3 0 13 1 32 3c5 2 13 4 22 5c13 2 24 2 31 0c10 -3 13 -5 9 -6c-56 -33 -130 -101 -222 -206c-105 -119 -176 -195 -211 -227c-18 -16 -36 -30 -53 -43c23 -7 57 -20 104 -40c103 -44 184 -72 245 -85l1 -1
c67 -12 124 -16 170 -12c22 2 45 6 70 11c36 8 56 16 61 25c0 1 2 4 5 4c2 0 4 -2 6 -6zM176 211c-27 7 -52 11 -77 14c-8 1 -16 1 -24 0c-27 -3 -41 -14 -41 -31c0 -10 8 -16 25 -19c10 -1 20 -1 30 0c31 5 57 14 77 28l-1 -1c3 1 7 4 11 9z" />
    <glyph glyph-name="a" unicode="a" horiz-adv-x="249" 
d="M269 224c0 -9 -14 -22 -42 -38c-37 -21 -70 -29 -99 -26c-12 1 -16 10 -13 27c-23 -19 -44 -29 -64 -29c-29 0 -45 17 -50 51c-6 44 14 90 60 137c30 31 59 47 86 47c33 0 49 -20 48 -60c11 19 18 30 22 34c10 11 22 16 36 13c9 -1 13 -5 12 -11c-1 -7 -24 -46 -67 -117
c-22 -36 -32 -54 -31 -54c7 -3 21 1 42 13l41 23c13 3 19 0 19 -10zM167 286c4 14 4 28 1 41c-3 16 -12 24 -27 24c-21 0 -40 -13 -59 -39c-18 -25 -27 -49 -27 -70c0 -27 11 -41 33 -41c16 0 33 10 50 30l10 19l17 31c1 2 1 4 2 5z" />
    <glyph glyph-name="b" unicode="b" horiz-adv-x="249" 
d="M262 224c0 -9 -14 -22 -42 -38c-30 -17 -71 -27 -122 -29c-9 -1 -17 0 -25 2c-25 1 -37 20 -34 55l-6 -10l-11 -18c-13 -21 -17 -32 -48 -28c-4 0 -7 1 -9 3c-1 2 14 32 47 89l109 185c11 21 28 47 51 80c7 7 16 9 29 7c10 -2 14 -6 13 -11c-1 -7 -11 -25 -28 -53
l-56 -92c23 17 44 25 63 25c26 0 40 -16 42 -47c3 -53 -22 -102 -74 -147c8 -2 22 3 42 14l41 23c12 3 18 0 18 -10zM184 315c2 23 -6 34 -23 34c-21 0 -43 -14 -66 -41l-31 -51c-4 -11 -6 -24 -6 -33c0 -15 7 -23 22 -23c16 0 35 9 56 28c29 25 45 54 48 86z" />
    <glyph glyph-name="c" unicode="c" horiz-adv-x="210" 
d="M229 224c0 -6 -2 -11 -6 -15c-13 -9 -25 -17 -36 -23c-33 -18 -70 -28 -111 -30c-47 -2 -72 16 -77 53c-5 43 15 89 60 137c29 31 58 47 87 47c39 0 62 -36 49 -69c-9 -23 -39 -43 -63 -46c17 13 28 26 31 40c5 22 -3 33 -24 33c-17 0 -35 -12 -54 -35
c-21 -27 -32 -51 -32 -74c0 -29 16 -44 48 -46c29 -2 65 11 110 38c12 3 18 0 18 -10z" />
    <glyph glyph-name="d" unicode="d" horiz-adv-x="256" 
d="M353 509c-1 -7 -11 -25 -28 -53l-125 -204c-22 -36 -32 -54 -31 -54c7 -3 21 1 42 13l41 23c11 3 17 -1 19 -10c0 -9 -14 -22 -42 -38c-37 -21 -70 -29 -99 -26c-12 1 -16 10 -13 27v2c-23 -21 -45 -31 -66 -31c-29 0 -45 17 -50 51c-6 44 14 90 60 137
c30 31 59 47 86 47c36 0 52 -23 47 -69l66 110c13 23 30 49 51 80c6 6 16 8 29 6c10 -2 14 -6 13 -11zM167 286c4 14 4 28 1 41c-3 16 -12 24 -27 24c-21 0 -40 -13 -59 -39c-18 -25 -27 -49 -27 -70c0 -27 11 -41 33 -41c19 0 38 13 57 40l5 9c5 8 10 20 17 36z" />
    <glyph glyph-name="e" unicode="e" horiz-adv-x="211" 
d="M228 224c1 -9 -7 -18 -22 -27c-43 -25 -86 -39 -130 -41c-47 -2 -73 16 -78 53c-4 30 6 63 31 100c15 23 34 42 56 59c27 21 52 29 74 24c28 -7 43 -32 38 -61c-3 -15 -9 -28 -18 -41c-23 -30 -52 -47 -88 -50c-17 -1 -30 2 -38 10c-3 -33 13 -51 48 -54
c25 -2 55 7 91 28c7 5 13 8 18 10c12 3 18 0 18 -10zM162 317v1c6 22 -2 33 -24 33c-17 0 -35 -11 -53 -34s-27 -38 -26 -45c1 -5 7 -7 18 -8s23 2 34 7c26 12 43 27 51 46z" />
    <glyph glyph-name="f" unicode="f" horiz-adv-x="118" 
d="M216 509c-1 -7 -11 -25 -28 -53l-89 -148l-66 -110c7 -3 21 1 42 13l41 23c12 3 18 -1 18 -10s-14 -22 -43 -39c-29 -16 -56 -25 -82 -26l-71 -119c-10 -13 -19 -29 -28 -49l-2 -10c22 9 46 31 72 66s39 64 39 87c0 7 -2 11 -6 14c8 -1 13 -8 16 -22
c4 -20 -6 -47 -29 -80c-44 -63 -83 -94 -118 -94c-15 0 -21 9 -19 28c2 16 10 35 24 56l6 9l2 4l32 55c9 18 38 67 87 148l17 27l92 155c16 27 33 53 51 80c7 7 17 9 30 6c9 -1 13 -5 12 -11z" />
    <glyph glyph-name="g" unicode="g" horiz-adv-x="247" 
d="M266 224c0 -6 -2 -11 -6 -15c-23 -16 -43 -28 -60 -35c-27 -11 -50 -19 -67 -24l-55 -92c-8 -13 -13 -22 -25 -39c-10 -15 -16 -24 -17 -27l-25 -30c-17 -19 -32 -26 -45 -23s-20 16 -20 39c0 22 8 48 24 77c28 51 61 85 124 112l6 10c-19 -13 -36 -19 -51 -19
c-29 0 -46 17 -51 51c-5 43 15 88 61 137c31 32 58 48 83 48c34 0 51 -20 50 -60c10 16 20 29 29 39c7 7 16 9 29 7c9 -2 14 -6 13 -11c-1 -7 -11 -25 -28 -53l-47 -75l-30 -50c15 1 45 16 90 43c12 3 18 0 18 -10zM164 287c7 23 5 41 -4 54c-6 7 -13 10 -22 10
c-20 0 -39 -13 -58 -39c-18 -26 -27 -49 -27 -70c0 -27 11 -41 33 -41c14 0 27 7 40 20c19 20 31 42 38 66zM57 104l13 24c-27 -13 -50 -32 -69 -56c-21 -26 -33 -53 -37 -81c-1 -5 -1 -9 0 -12s2 -4 4 -3c11 4 29 28 55 72z" />
    <glyph glyph-name="h" unicode="h" horiz-adv-x="228" 
d="M291 553c0 -16 -5 -34 -15 -54c-22 -43 -51 -74 -87 -91c-9 -5 -22 -10 -37 -16l-19 -31c27 21 51 31 72 30c22 -2 32 -18 31 -48c-1 -22 -11 -47 -29 -76l-34 -49c-7 -9 -10 -16 -10 -19c0 -2 1 -3 3 -3c5 0 20 8 45 23c7 5 14 9 21 12c2 1 4 1 6 1c8 0 11 -4 10 -11
c1 -3 -2 -8 -7 -15c-13 -13 -44 -29 -92 -47c-34 -8 -52 -6 -55 7c-2 9 10 32 37 69c29 40 44 66 47 78c5 23 -2 34 -19 34c-15 0 -34 -13 -58 -38l-73 -123c-12 -21 -19 -32 -48 -28c-5 0 -8 1 -9 3c-2 3 -1 8 3 16c13 21 28 46 43 73c9 15 35 61 80 136
c-20 3 -32 11 -35 22c5 -1 10 -2 16 -2c9 0 20 1 33 4l15 25l37 62l15 24l18 30l7 10c21 29 41 42 60 37c19 -4 28 -19 28 -45zM273 552c0 7 -2 14 -7 13c-11 -3 -28 -25 -49 -64h-1c-3 -5 -11 -20 -25 -43l-18 -30c53 21 99 72 100 124z" />
    <glyph glyph-name="i" unicode="i" horiz-adv-x="119" 
d="M202 471c0 -8 -4 -18 -11 -29c-19 -29 -39 -43 -59 -43c-9 0 -14 5 -14 14c0 8 4 18 11 29c19 29 38 43 59 43c9 0 14 -5 14 -14zM135 224c0 -9 -14 -22 -43 -38c-37 -21 -69 -29 -97 -26c-13 1 -17 10 -14 27c1 3 12 24 33 63l27 47c13 24 30 51 52 81c6 6 16 8 29 6
c10 -2 14 -6 13 -11s-24 -45 -71 -121c-22 -36 -32 -54 -31 -54c8 -3 22 1 43 13l41 23c12 3 18 0 18 -10z" />
    <glyph glyph-name="j" unicode="j" horiz-adv-x="117" 
d="M202 471c0 -8 -4 -18 -11 -29c-19 -29 -39 -43 -59 -43c-9 0 -14 5 -14 14c0 8 4 18 11 29c19 29 39 43 59 43c9 0 14 -5 14 -14zM135 224c0 -6 -2 -11 -6 -15c-23 -17 -43 -28 -60 -35c-23 -9 -45 -17 -66 -24l-55 -92l-11 -18l-14 -21c-10 -15 -16 -24 -17 -27l-25 -30
c-17 -19 -32 -26 -45 -23s-20 16 -20 39c0 22 8 48 24 77c28 51 61 85 124 112l72 122c25 47 44 76 57 89c6 6 16 8 29 6c10 -2 14 -6 13 -11c-1 -7 -11 -24 -28 -53l-17 -26l-62 -103c16 2 46 16 89 43c12 3 18 0 18 -10zM-73 104l13 24c-27 -13 -50 -32 -69 -56
c-21 -26 -33 -53 -37 -81c-1 -5 -1 -9 0 -12s2 -4 4 -3c11 4 29 28 55 72z" />
    <glyph glyph-name="k" unicode="k" horiz-adv-x="230" 
d="M288 553c0 -16 -5 -34 -15 -54c-22 -43 -51 -74 -87 -91c-9 -5 -22 -10 -37 -16l-14 -23c23 15 42 23 59 22c31 -2 47 -16 47 -42c0 -11 -4 -24 -12 -37c-13 -23 -29 -38 -48 -44c-3 -1 -5 -2 -5 -3c3 -2 22 -14 17 -17c0 -6 -4 -14 -13 -25s-13 -17 -13 -20
c0 -2 1 -3 4 -3s24 11 63 34c11 3 17 -1 17 -10c0 -11 -13 -24 -39 -37c-15 -7 -33 -15 -55 -24c-33 -7 -52 -5 -56 7c-3 8 1 20 12 35c14 19 21 30 22 32c1 3 1 5 2 6c0 3 -1 6 -16 6c-35 -1 -55 -2 -60 -1l-26 -44l-10 -18c-15 -23 -19 -32 -48 -28c-5 0 -8 1 -9 3
c-2 3 -1 8 3 16c13 21 28 46 43 73c9 15 35 61 80 136c-20 3 -32 11 -35 22c5 -1 10 -2 16 -2c9 0 20 1 33 4l15 25l37 62l15 24l18 30l7 10c21 29 41 42 60 37c19 -4 28 -19 28 -45zM270 552c0 7 -2 14 -7 13c-11 -3 -28 -25 -49 -64h-1c-3 -5 -11 -20 -25 -43l-18 -30
c53 21 99 72 100 124zM182 327c0 14 -8 21 -23 21c-17 0 -36 -10 -55 -30l-29 -47c71 3 107 21 107 56z" />
    <glyph glyph-name="l" unicode="l" horiz-adv-x="137" 
d="M254 552c-8 -45 -25 -89 -50 -134c-49 -87 -100 -151 -155 -192c-7 -13 -11 -21 -11 -24s1 -4 4 -5c10 -3 29 3 56 16c21 11 35 17 40 19c12 3 18 0 18 -10c1 -3 -1 -8 -6 -15c-47 -33 -90 -49 -128 -49c-14 0 -23 4 -28 11c-7 9 -6 24 1 45c1 1 7 17 20 46
c23 55 48 105 74 149c31 53 48 81 50 83c43 68 75 102 98 102c17 0 22 -14 17 -42zM231 548c0 2 0 4 -1 5c-18 -14 -63 -88 -134 -221c-11 -21 -21 -40 -28 -58c23 19 49 49 76 90c39 58 66 109 79 153c5 15 7 25 8 31z" />
    <glyph glyph-name="m" unicode="m" horiz-adv-x="373" 
d="M390 223c0 -3 -2 -8 -7 -16c-13 -11 -44 -27 -93 -47c-33 -7 -52 -5 -55 7c-3 10 9 33 36 69c29 39 45 66 48 80s1 24 -4 29c-8 7 -21 5 -39 -6c-21 -13 -42 -37 -63 -70l-48 -83c-8 -13 -14 -21 -18 -24c-7 -5 -17 -6 -30 -5c-5 1 -8 2 -9 3c-2 4 -1 10 3 17
c17 30 37 64 61 102c7 17 12 30 13 37c3 14 1 24 -5 29c-9 8 -25 4 -48 -12c-17 -13 -31 -26 -40 -39c-6 -8 -11 -16 -16 -25c-5 -7 -13 -21 -25 -41l-15 -24l-10 -18c-15 -23 -19 -32 -48 -28c-5 0 -8 1 -9 3c-2 3 -1 8 3 16l39 66l4 7l34 57c25 43 42 70 51 80
c6 7 16 9 30 6c9 -1 13 -5 12 -11c-1 -5 -5 -13 -12 -25c4 3 10 8 19 14c22 15 42 22 60 22c25 0 37 -16 37 -48c34 33 65 49 93 49c27 0 40 -16 39 -48c-1 -21 -10 -47 -29 -77c-6 -10 -17 -26 -34 -49c-7 -10 -11 -17 -11 -20c0 -1 1 -2 3 -2s6 1 11 4c12 5 44 24 56 31
c11 3 16 0 16 -10z" />
    <glyph glyph-name="n" unicode="n" horiz-adv-x="235" 
d="M255 223c0 -3 -3 -8 -8 -16c-13 -12 -44 -28 -92 -47c-34 -7 -52 -5 -55 7c-3 11 9 34 36 69c29 39 45 66 48 80c4 23 -1 34 -16 34c-19 0 -42 -16 -69 -48c-7 -10 -22 -35 -46 -74l-15 -24l-10 -18c-15 -23 -19 -32 -48 -28c-5 0 -8 1 -9 3c-2 3 -1 8 3 16l39 66l4 7
l34 57c25 43 42 70 51 80c6 7 16 9 30 6c9 -1 13 -5 12 -11c-1 -4 -3 -9 -6 -15c26 18 48 27 66 27c27 0 40 -16 39 -48c-1 -21 -11 -47 -29 -77l-35 -49c-7 -9 -10 -16 -10 -20c0 -1 1 -2 3 -2c1 0 24 12 67 35c11 3 16 0 16 -10z" />
    <glyph glyph-name="o" unicode="o" horiz-adv-x="231" 
d="M252 224c0 -9 -14 -22 -42 -38c-17 -9 -36 -13 -59 -11c-7 0 -14 1 -20 3c-15 -9 -30 -16 -46 -20c-23 -5 -44 -4 -62 5c-20 10 -30 27 -30 50c0 45 24 90 73 137c37 35 74 48 109 41c29 -6 43 -25 43 -58c0 -39 -17 -80 -52 -122c4 -1 8 -2 11 -2c9 0 18 3 27 8
c7 5 17 10 30 17c12 3 18 0 18 -10zM174 286c5 15 6 29 3 42c-3 15 -13 23 -29 23c-19 0 -38 -12 -59 -35c-23 -27 -35 -52 -35 -75c0 -29 13 -42 39 -39c-5 8 -9 16 -10 25c-3 24 6 44 27 60c2 -24 11 -44 28 -60c17 17 29 36 36 59z" />
    <glyph glyph-name="p" unicode="p" horiz-adv-x="241" 
d="M261 224c1 -7 -5 -15 -16 -23l-26 -15c-29 -17 -70 -27 -121 -29c-9 -1 -18 0 -26 2c-25 1 -37 20 -34 57v5l-97 -162c-8 -13 -14 -21 -18 -24c-7 -5 -17 -6 -30 -5c-5 1 -8 2 -9 3c-2 3 -1 8 3 17l43 73l109 185c25 43 42 70 51 79c7 7 17 9 30 7c9 -1 13 -5 12 -11
c-1 -5 -4 -12 -9 -22c25 20 48 30 69 30c27 0 41 -16 43 -47c3 -53 -22 -102 -75 -147c8 -2 22 3 42 14l41 23c12 3 18 -1 18 -10zM184 315c2 23 -6 34 -24 34c-22 0 -45 -15 -68 -45c-23 -29 -35 -56 -35 -80c0 -15 7 -23 22 -23c16 0 35 9 56 28c29 26 46 55 49 86z" />
    <glyph glyph-name="q" unicode="q" horiz-adv-x="247" 
d="M267 224c0 -9 -14 -21 -42 -38c-13 -8 -37 -18 -72 -30c10 -13 14 -28 12 -45c-3 -25 -18 -53 -46 -84c-23 -25 -47 -45 -74 -62c-15 -9 -30 -15 -44 -17c-16 -4 -24 4 -20 20c3 9 6 18 10 27c17 35 28 53 34 54c7 11 18 30 32 55l43 73c-18 -13 -35 -19 -51 -19
c-29 0 -45 17 -50 51c-6 44 14 90 60 137c31 32 59 48 84 48c34 0 51 -20 50 -60c11 19 19 30 23 34c10 11 22 15 35 12c9 -1 13 -5 12 -11c-3 -10 -25 -49 -67 -117l-38 -61c10 1 25 7 45 18c15 8 30 16 45 25c11 3 17 -1 19 -10zM126 221l39 66c4 15 4 28 1 40
c-4 16 -13 24 -27 24c-21 0 -40 -13 -59 -39c-18 -25 -27 -49 -27 -70c0 -27 11 -41 33 -41c13 0 26 7 40 20zM141 130c0 9 -2 16 -5 21c-1 0 -1 0 -2 -1l-54 -89c1 1 1 1 2 1c-27 -39 -40 -62 -40 -71c0 -1 0 -2 1 -2c3 -1 11 3 22 12c19 16 36 35 51 58c17 26 25 50 25 71
z" />
    <glyph glyph-name="r" unicode="r" horiz-adv-x="232" 
d="M254 246c2 -9 -9 -24 -34 -46l-22 -16c-31 -20 -53 -30 -67 -30c-26 0 -41 14 -45 43c-2 15 6 38 23 71l25 45l8 19c-15 6 -28 10 -37 13c-9 -19 -22 -44 -38 -73c-7 -11 -18 -25 -33 -41c-19 -20 -31 -30 -38 -31c-13 0 -19 6 -18 18l5 5c16 14 36 36 61 65
c9 13 15 25 20 38c9 24 15 43 17 56l3 20c1 1 2 7 4 17c3 5 7 9 13 10c16 4 26 -20 22 -36l-3 -14c1 -1 5 -3 13 -6l3 2c5 -1 28 -12 32 -13l24 -6c5 -3 8 -8 9 -13c1 -4 -5 -16 -16 -35l-25 -43c-24 -43 -33 -68 -27 -75c4 -5 16 -2 36 10c7 4 28 21 64 51c5 3 9 3 14 1
c4 -1 6 -3 7 -6z" />
    <glyph glyph-name="s" unicode="s" horiz-adv-x="217" 
d="M243 246c2 -9 -9 -25 -34 -46c-15 -13 -37 -26 -64 -39c-19 -7 -42 -11 -69 -12h-3c-15 0 -29 4 -42 11c-15 9 -23 20 -24 34c0 7 1 14 4 22c-5 -5 -13 -11 -22 -16c-13 0 -19 6 -18 18l6 5c13 12 33 34 60 65c19 29 31 60 37 94l8 38c5 6 10 9 15 9c16 0 22 -21 19 -36
c-1 -1 -1 -3 -2 -6c2 -7 13 -13 32 -16c3 0 5 0 8 -1c0 -1 -1 -4 -4 -8c-9 -15 -13 -31 -12 -48l16 -66c1 -11 2 -21 1 -30c-1 -8 -2 -15 -5 -22c7 3 31 21 72 55c5 3 9 3 14 1c3 -1 6 -3 7 -6zM108 203c2 11 0 26 -6 45l-14 74c0 -1 -1 -3 -3 -6c-10 -19 -26 -44 -48 -75
c15 3 23 -9 19 -22c-3 -9 -17 -22 -17 -29c0 -5 3 -9 9 -13c11 -7 23 -7 38 0c13 5 20 14 22 26z" />
    <glyph glyph-name="t" unicode="t" horiz-adv-x="120" 
d="M253 451l-5 -9c-1 -4 -4 -6 -7 -6h-69l-113 -184c-22 -36 -32 -54 -31 -54c7 -3 21 1 42 13c19 11 33 18 42 23c12 3 18 0 18 -10c0 -9 -14 -22 -43 -38c-37 -21 -69 -29 -98 -26c-12 1 -16 10 -13 27c1 6 12 27 33 63l112 186h-45c-3 0 -3 2 -1 6l4 9c2 4 5 6 8 6h45
c15 28 28 47 38 57c6 6 16 8 29 6c10 -2 14 -6 13 -11c-1 -7 -11 -24 -28 -53c0 1 1 2 3 5c-1 0 -2 -1 -3 -4h67c3 0 4 -2 2 -6z" />
    <glyph glyph-name="u" unicode="u" horiz-adv-x="264" 
d="M289 374c-1 -7 -11 -25 -28 -52l-45 -70c-23 -36 -33 -54 -31 -54c7 -3 21 1 42 13c19 11 33 18 42 23c12 3 18 0 18 -10c0 -9 -14 -22 -43 -38c-37 -21 -70 -29 -98 -26c-5 1 -9 3 -12 8c-4 7 0 20 13 39l-20 -17l-31 -15c-26 -13 -50 -18 -73 -15c-13 2 -17 11 -14 27
c1 4 12 25 33 63l24 43c24 43 43 71 57 86c6 7 16 9 29 6c9 -2 14 -6 13 -11c-1 -7 -11 -25 -28 -52l-45 -70c-23 -36 -33 -54 -31 -54c10 -4 35 6 76 31c17 10 34 31 53 64c13 22 31 51 56 86c7 7 17 9 30 6c9 -2 14 -6 13 -11z" />
    <glyph glyph-name="v" unicode="v" horiz-adv-x="202" 
d="M266 432c2 -6 2 -18 -1 -37c-7 -48 -31 -94 -70 -139c-39 -44 -82 -73 -129 -87c-22 -7 -44 -10 -65 -9c-9 0 -14 5 -15 15c-1 11 2 21 9 32s23 40 49 86c12 21 31 50 57 86c6 7 16 9 29 6c10 -2 14 -6 13 -11c-1 -8 -11 -25 -28 -52l-45 -70c-23 -36 -33 -54 -31 -54
c3 -1 7 -1 10 -1c19 0 45 12 78 35c54 39 88 83 101 130c4 15 4 27 0 38c-6 15 -9 24 -8 25c3 18 12 26 27 24c9 -1 15 -6 19 -17z" />
    <glyph glyph-name="w" unicode="w" horiz-adv-x="325" 
d="M388 432c2 -5 1 -17 -2 -37c-8 -49 -32 -95 -71 -139s-81 -73 -128 -87c-22 -7 -44 -10 -65 -9c-9 0 -14 5 -15 15c0 5 1 11 3 18c-10 -8 -23 -15 -38 -20c-32 -11 -57 -16 -76 -13c-14 2 -19 10 -14 24c3 9 9 22 18 39l71 118l21 34c8 9 19 13 34 10c9 -1 13 -5 12 -11
c-1 -8 -11 -25 -28 -52l-45 -70c-22 -36 -32 -54 -30 -54c7 -3 22 1 43 11c32 15 53 28 64 40c3 7 22 38 55 95c10 17 17 27 21 31c9 9 21 13 34 10c9 -1 13 -5 12 -11c-1 -8 -11 -25 -28 -52l-45 -70c-22 -36 -32 -54 -30 -54c3 -1 7 -1 10 -1c19 0 44 12 77 35
c54 39 88 83 102 130c4 13 3 26 -2 39s-7 21 -7 24c3 17 12 25 27 24c9 -1 16 -7 20 -17z" />
    <glyph glyph-name="x" unicode="x" horiz-adv-x="299" 
d="M332 375c-1 -6 -9 -17 -23 -33c-27 -31 -61 -56 -103 -75l2 -36c3 -31 14 -42 33 -31c13 7 27 18 42 32l18 15c7 1 12 2 14 1c5 -2 7 -8 6 -19c-46 -47 -84 -70 -114 -70c-16 0 -29 7 -38 20c-7 9 -11 31 -13 66c-50 -21 -78 -47 -85 -77c-2 -9 -5 -18 -9 -27
c-7 -7 -14 -11 -22 -11c-17 0 -22 10 -17 31c2 7 9 18 22 33c27 33 64 59 110 78l-1 7c0 5 0 10 -1 13c-1 12 -3 24 -7 37c-3 4 -8 6 -13 5c-4 -1 -31 -29 -80 -86c-17 -19 -36 -35 -57 -50c-4 -3 -8 -4 -11 -4s-7 4 -10 11c-3 6 1 13 11 21c32 25 57 49 74 72
c11 17 29 42 54 73c8 8 18 13 30 14c21 2 37 -5 48 -21c7 -9 11 -33 13 -70c46 21 72 45 79 74c3 11 5 20 8 27c7 8 15 12 22 12c17 0 23 -11 18 -32z" />
    <glyph glyph-name="y" unicode="y" horiz-adv-x="237" 
d="M262 224c1 -8 -5 -16 -19 -25c-31 -19 -67 -35 -109 -48l-44 -72c-29 -49 -47 -77 -52 -84c-31 -42 -55 -61 -72 -56c-13 3 -20 16 -20 39c0 21 8 47 24 77c29 52 62 85 123 112l16 26c-19 -15 -45 -25 -77 -31c-14 -3 -26 -3 -37 -2c-13 2 -18 10 -14 24
c3 11 10 24 19 40c20 35 52 87 95 155c3 5 11 7 23 7c15 0 21 -4 19 -12c-2 -9 -26 -50 -72 -122c-13 -21 -24 -39 -31 -54c3 -1 6 -1 9 -1c11 0 27 6 48 17c19 11 34 21 44 31c7 7 14 16 20 25c17 28 38 64 65 107c4 7 14 9 30 6c9 -1 13 -5 12 -11c-1 -4 -2 -8 -4 -11
c-3 -9 -12 -26 -27 -50l-73 -120c19 5 48 19 86 43c12 3 18 0 18 -10zM57 104l13 24c-52 -25 -97 -81 -106 -137c-1 -7 -1 -11 0 -13s2 -3 4 -2c7 3 17 14 31 35c26 37 45 68 58 93z" />
    <glyph glyph-name="z" unicode="z" horiz-adv-x="216" 
d="M252 368c3 -11 2 -24 -5 -40c-13 -33 -35 -62 -66 -87c-15 -13 -30 -22 -43 -27c9 -3 15 -9 16 -16c5 2 29 14 70 36c12 3 18 -1 18 -10s-14 -22 -42 -38c-9 -5 -27 -12 -56 -23l-7 -13c-17 -35 -36 -67 -57 -96l-40 -54c-37 -49 -68 -71 -94 -65c-11 3 -16 11 -14 26
c6 52 36 104 91 157c26 25 52 45 78 59l6 10c2 7 -4 12 -19 17c-10 1 -15 5 -14 13c12 -4 28 1 49 15c27 18 49 42 66 72c5 8 7 15 7 21c0 13 -8 18 -23 17c-13 -1 -31 -13 -52 -36l-67 -72c-26 -25 -56 -44 -89 -57l-15 -6c-7 -3 -11 -3 -11 0c0 -1 -1 1 -3 4
c-1 3 -1 7 0 10c1 4 4 8 8 12c17 8 34 17 50 26c15 10 39 32 70 65c35 37 60 61 76 74c30 23 56 34 79 31c17 -2 28 -10 33 -25zM84 137c-53 -32 -108 -96 -125 -153c-3 -9 -4 -16 -4 -21c0 -2 1 -3 2 -3c15 9 51 57 107 143c11 17 18 29 20 34z" />
    <glyph glyph-name="NULL" horiz-adv-x="0" 
 />
    <glyph glyph-name="less" unicode="&#x3c;" horiz-adv-x="102" 
d="M102 219c0 -23 -18 -54 -55 -92c-56 -59 -124 -95 -205 -110c-47 -9 -107 -13 -178 -13c-41 0 -90 1 -147 4l-127 6c-127 3 -225 2 -294 -3c-109 -8 -197 -21 -263 -40c-31 -9 -58 -20 -83 -34c3 11 12 27 29 49s26 42 27 61c1 13 1 24 -1 32c5 3 13 5 26 8
c90 20 192 30 305 30c41 0 82 -1 122 -3c29 -1 127 -11 294 -29c69 -7 131 -11 185 -11c143 0 243 30 301 90c22 23 33 40 33 51c0 6 -3 11 -9 14c-8 4 -34 -8 -43 -17s-16 -10 -20 -4l-5 8c-2 5 0 11 6 17c21 19 41 29 62 29c27 0 40 -14 40 -43z" />
    <glyph glyph-name="bracketleft" unicode="[" horiz-adv-x="102" 
d="M102 219c0 -23 -18 -54 -55 -92c-56 -59 -124 -95 -205 -110c-47 -9 -107 -13 -178 -13c-41 0 -90 1 -147 4l-127 6c-127 3 -225 2 -294 -3c-109 -8 -197 -21 -263 -40c-31 -9 -58 -20 -83 -34c3 11 12 27 29 49s26 42 27 61c1 13 1 24 -1 32c5 3 13 5 26 8
c90 20 192 30 305 30c41 0 82 -1 122 -3c29 -1 127 -11 294 -29c69 -7 131 -11 185 -11c143 0 243 30 301 90c22 23 33 40 33 51c0 6 -3 11 -9 14c-8 4 -34 -8 -43 -17s-16 -10 -20 -4l-5 8c-2 5 0 11 6 17c21 19 41 29 62 29c27 0 40 -14 40 -43z" />
    <glyph glyph-name="bracketright" unicode="]" horiz-adv-x="102" 
d="M102 219c0 -23 -18 -54 -55 -92c-56 -59 -124 -95 -205 -110c-47 -9 -107 -13 -178 -13c-41 0 -90 1 -147 4l-127 6c-127 3 -225 2 -294 -3c-109 -8 -197 -21 -263 -40c-31 -9 -58 -20 -83 -34c3 11 12 27 29 49s26 42 27 61c1 13 1 24 -1 32c5 3 13 5 26 8
c90 20 192 30 305 30c41 0 82 -1 122 -3c29 -1 127 -11 294 -29c69 -7 131 -11 185 -11c143 0 243 30 301 90c22 23 33 40 33 51c0 6 -3 11 -9 14c-8 4 -34 -8 -43 -17s-16 -10 -20 -4l-5 8c-2 5 0 11 6 17c21 19 41 29 62 29c27 0 40 -14 40 -43z" />
    <glyph glyph-name="braceleft" unicode="{" horiz-adv-x="102" 
d="M102 219c0 -23 -18 -54 -55 -92c-56 -59 -124 -95 -205 -110c-47 -9 -107 -13 -178 -13c-41 0 -90 1 -147 4l-127 6c-127 3 -225 2 -294 -3c-109 -8 -197 -21 -263 -40c-31 -9 -58 -20 -83 -34c3 11 12 27 29 49s26 42 27 61c1 13 1 24 -1 32c5 3 13 5 26 8
c90 20 192 30 305 30c41 0 82 -1 122 -3c29 -1 127 -11 294 -29c69 -7 131 -11 185 -11c143 0 243 30 301 90c22 23 33 40 33 51c0 6 -3 11 -9 14c-8 4 -34 -8 -43 -17s-16 -10 -20 -4l-5 8c-2 5 0 11 6 17c21 19 41 29 62 29c27 0 40 -14 40 -43z" />
    <glyph glyph-name="braceright" unicode="}" horiz-adv-x="102" 
d="M102 219c0 -23 -18 -54 -55 -92c-56 -59 -124 -95 -205 -110c-47 -9 -107 -13 -178 -13c-41 0 -90 1 -147 4l-127 6c-127 3 -225 2 -294 -3c-109 -8 -197 -21 -263 -40c-31 -9 -58 -20 -83 -34c3 11 12 27 29 49s26 42 27 61c1 13 1 24 -1 32c5 3 13 5 26 8
c90 20 192 30 305 30c41 0 82 -1 122 -3c29 -1 127 -11 294 -29c69 -7 131 -11 185 -11c143 0 243 30 301 90c22 23 33 40 33 51c0 6 -3 11 -9 14c-8 4 -34 -8 -43 -17s-16 -10 -20 -4l-5 8c-2 5 0 11 6 17c21 19 41 29 62 29c27 0 40 -14 40 -43z" />
    <glyph glyph-name="parenright" unicode=")" horiz-adv-x="102" 
d="M102 219c0 -23 -18 -54 -55 -92c-56 -59 -124 -95 -205 -110c-47 -9 -107 -13 -178 -13c-41 0 -90 1 -147 4l-127 6c-127 3 -225 2 -294 -3c-109 -8 -197 -21 -263 -40c-31 -9 -58 -20 -83 -34c3 11 12 27 29 49s26 42 27 61c1 13 1 24 -1 32c5 3 13 5 26 8
c90 20 192 30 305 30c41 0 82 -1 122 -3c29 -1 127 -11 294 -29c69 -7 131 -11 185 -11c143 0 243 30 301 90c22 23 33 40 33 51c0 6 -3 11 -9 14c-8 4 -34 -8 -43 -17s-16 -10 -20 -4l-5 8c-2 5 0 11 6 17c21 19 41 29 62 29c27 0 40 -14 40 -43z" />
    <glyph glyph-name="parenleft" unicode="(" horiz-adv-x="102" 
d="M102 219c0 -23 -18 -54 -55 -92c-56 -59 -124 -95 -205 -110c-47 -9 -107 -13 -178 -13c-41 0 -90 1 -147 4l-127 6c-127 3 -225 2 -294 -3c-109 -8 -197 -21 -263 -40c-31 -9 -58 -20 -83 -34c3 11 12 27 29 49s26 42 27 61c1 13 1 24 -1 32c5 3 13 5 26 8
c90 20 192 30 305 30c41 0 82 -1 122 -3c29 -1 127 -11 294 -29c69 -7 131 -11 185 -11c143 0 243 30 301 90c22 23 33 40 33 51c0 6 -3 11 -9 14c-8 4 -34 -8 -43 -17s-16 -10 -20 -4l-5 8c-2 5 0 11 6 17c21 19 41 29 62 29c27 0 40 -14 40 -43z" />
    <glyph glyph-name="zero" unicode="0" 
d="M1135 94c1 -23 -10 -35 -32 -35c-21 0 -33 13 -34 38l8 7l11 -6c1 -14 6 -21 14 -21c9 1 13 6 13 16c0 5 -5 14 -16 26c-8 7 -16 15 -23 23c-3 7 -5 13 -5 20c0 23 10 34 31 34c20 0 31 -10 32 -31l-19 -4c-1 11 -6 17 -13 17s-10 -5 -10 -15c0 -7 9 -19 26 -36
c11 -11 17 -22 17 -33zM1013 60v114h-21v20h63v-20h-22v-114l-10 -7zM1108 0h-4l17 36h4zM1067 1h-5v28h5l14 -17l13 17h5v-28h-6v19l-12 -16h-1l-13 16v-19zM482 608l88 192l85 -191l210 -24l-155 -140l43 -207l-182 104l-184 -104l43 204l-156 143zM906 194h23l26 -90v90
h21v-134h-22l-28 86v-86h-20v115l-7 9zM1015 8v14c0 5 2 7 7 7h21c5 0 7 -2 7 -7v-14c0 -5 -2 -7 -7 -7h-21c-5 0 -7 2 -7 7zM998 18v5h-18v-17h18v6l6 -1v-3c0 -5 -2 -7 -7 -7h-17c-5 0 -7 2 -7 7v14c0 5 2 7 7 7h17c5 0 7 -2 7 -7v-3zM856 196c21 0 32 -11 32 -32v-73
c0 -21 -11 -32 -32 -32s-32 11 -32 32v73c0 21 11 32 32 32zM952 11h9c1 -1 1 -1 1 -2v-6c0 -1 0 -1 -1 -2h-8c-1 0 -1 0 -1 1v9zM943 24h-13v-23h-7v23h-13v5h33v-5zM773 117v-57h-20v114l-7 10l7 10h57v-20h-37v-37h27v-20h-27zM867 8v14c0 5 2 7 7 7h21c5 0 7 -2 7 -7
v-14c0 -5 -2 -7 -7 -7h-21c-5 0 -7 2 -7 7zM833 1h-7v28h25c5 0 7 -2 7 -6v-6c0 -3 -2 -5 -7 -5h-18v-11zM725 80v-20h-55v134l10 8l10 -8v-114h35zM809 21v3h-19v-6h18c5 0 7 -2 7 -7v-3c0 -5 -2 -7 -7 -7h-18c-5 0 -7 2 -7 7l5 1v-3h21v6h-18c-5 0 -7 2 -7 7v3
c0 5 2 7 7 7h16c5 0 7 -2 7 -6v-1zM765 21v2h-21v-17h21v6h-11v5h18v-9c0 -5 -2 -7 -7 -7h-20c-5 0 -7 2 -7 7v14c0 5 2 7 7 7h20c5 0 7 -2 7 -7zM656 60h-57v114l-7 10l7 10h57v-20h-37v-37h27v-20h-27v-37h37v-20zM691 8v14c0 5 2 7 7 7h22c5 0 7 -2 7 -7v-14
c0 -5 -2 -7 -7 -7h-22c-5 0 -7 2 -7 7zM684 1h-28v28h7v-23h21v-5zM549 58c-21 0 -32 11 -32 32v73c0 22 11 33 32 33s32 -11 32 -33v-15h-21v16c0 8 -4 12 -11 12c-8 0 -12 -4 -12 -12v-73c0 -8 4 -12 12 -12c7 0 11 4 11 12v26h-11l-8 9l8 11h32v-47
c0 -21 -11 -32 -32 -32zM636 1h-23v28h25c4 0 6 -2 6 -6v-3c0 -3 -1 -4 -4 -5c3 -1 5 -2 5 -5v-4c0 -3 -3 -5 -9 -5zM592 11h9v-10h-8c-1 0 -2 1 -2 2v6c0 1 0 1 1 2zM436 194h31c21 0 32 -11 32 -32v-19c0 -10 -4 -18 -11 -24l15 -59h-22l-12 51h-13v-51h-20v115l-7 9z
M584 1h-28v28h7v-23h21v-5zM546 1h-30v28h30v-5h-23v-6h13v-5h-13v-7h23v-5zM393 91h-21l-5 -31l-11 -6l-10 6l22 134h28l23 -134l-11 -6l-11 6zM498 21v2h-21v-17h21v6h-11v5h18v-9c0 -5 -2 -7 -7 -7h-20c-5 0 -7 2 -7 7v14c0 5 2 7 7 7h20c5 0 7 -2 7 -7zM436 1h-7v28h25
c4 0 6 -2 6 -6v-6c0 -4 -2 -6 -6 -6h-4l13 -10h-9l-12 10h-6v-10zM390 1h-7l16 28h7l16 -28h-7l-4 6h-18zM271 60v56l-27 78h22l15 -48l15 48h22l-27 -78v-56h-20zM369 1h-6v12l-15 16h9l9 -11l10 11h8l-15 -15v-13zM255 80v-20h-55v134l9 8l11 -8v-114h35zM352 1h-29v28h7
v-23h22v-5zM316 1h-28v28h6v-23h22v-5zM186 80v-20h-55v134l9 8l11 -8v-114h35zM275 1h-6v28h6v-28zM249 1h-23v28h25c4 0 6 -2 6 -6v-3c0 -3 -2 -4 -5 -5c3 -1 5 -2 5 -5v-4c0 -3 -3 -5 -8 -5zM204 0h-4l17 36h4zM113 194v-134l-11 -7l-10 7v134h21zM186 0h-4l17 36h4z
M171 29h5c1 0 1 0 2 -1v-9h-10v9c1 1 2 1 3 1zM168 11h10v-10h-9l-1 1v9zM44 60h-37v114l-7 9l7 11h30c23 0 35 -12 35 -37c0 -13 -5 -22 -14 -27c11 -4 17 -15 17 -32c0 -25 -10 -38 -31 -38zM134 1h-7v28h25c5 0 7 -2 7 -6v-6c0 -3 -2 -5 -7 -5h-18v-11zM119 24h-14v-23
h-6v23h-13v5h33v-5zM83 24h-13v-23h-7v23h-13v5h33v-5zM14 1h-7v28h7v-11h21v11h6v-28h-6v12h-21v-12zM625 341l22 14l-48 289h-60l-49 -289l23 -14l22 14l11 66h45l10 -66zM1021 23v-17h23v17h-23zM867 91v73c0 8 -4 12 -11 12c-8 0 -12 -4 -12 -12v-73c0 -8 4 -12 12 -12
c7 0 11 4 11 12zM873 23v-17h22v17h-22zM848 24h-15v-7h15c2 0 3 1 3 2v3c0 1 -1 2 -3 2zM698 23v-17h22v17h-22zM635 24h-15v-6h15c2 0 3 1 3 2v2c0 1 -1 2 -3 2zM635 13h-15v-7h15c2 0 3 1 3 2v3c0 1 -1 2 -3 2zM479 142v20c0 7 -4 11 -11 11h-12v-42h12c7 0 11 4 11 11z
M390 111l-8 52l-7 -52h15zM451 24h-15v-8h15c2 0 3 1 3 2v4c0 1 -1 2 -3 2zM402 24l-6 -12h13zM248 24h-16v-6h16c2 0 3 1 3 2v2c0 1 -1 2 -3 2zM248 13h-16v-7h16c2 0 3 1 3 2v3c0 1 -1 2 -3 2zM29 174v-35h8c9 0 14 6 14 18c0 11 -5 17 -14 17h-8zM149 24h-15v-7h15
c2 0 3 1 3 2v3c0 1 -1 2 -3 2zM29 120v-40h8c11 0 16 6 16 19c0 14 -5 21 -16 21h-8zM552 464l16 114l17 -114h-33z" />
    <glyph glyph-name="one" unicode="1" 
d="M1135 94c1 -23 -10 -35 -32 -35c-21 0 -33 13 -34 38l8 7l11 -6c1 -14 6 -21 14 -21c9 1 13 6 13 16c0 5 -5 14 -16 26c-8 7 -16 15 -23 23c-3 7 -5 13 -5 20c0 23 10 34 31 34c20 0 31 -10 32 -31l-19 -4c-1 11 -6 17 -13 17s-10 -5 -10 -15c0 -7 9 -19 26 -36
c11 -11 17 -22 17 -33zM1013 60v114h-21v20h63v-20h-22v-114l-10 -7zM1108 0h-4l17 36h4zM1067 1h-5v28h5l14 -17l13 17h5v-28h-6v19l-12 -16h-1l-13 16v-19zM482 608l88 192l85 -191l210 -24l-155 -140l43 -207l-182 104l-184 -104l43 204l-156 143zM906 194h23l26 -90v90
h21v-134h-22l-28 86v-86h-20v115l-7 9zM1015 8v14c0 5 2 7 7 7h21c5 0 7 -2 7 -7v-14c0 -5 -2 -7 -7 -7h-21c-5 0 -7 2 -7 7zM998 18v5h-18v-17h18v6l6 -1v-3c0 -5 -2 -7 -7 -7h-17c-5 0 -7 2 -7 7v14c0 5 2 7 7 7h17c5 0 7 -2 7 -7v-3zM856 196c21 0 32 -11 32 -32v-73
c0 -21 -11 -32 -32 -32s-32 11 -32 32v73c0 21 11 32 32 32zM952 11h9c1 -1 1 -1 1 -2v-6c0 -1 0 -1 -1 -2h-8c-1 0 -1 0 -1 1v9zM943 24h-13v-23h-7v23h-13v5h33v-5zM773 117v-57h-20v114l-7 10l7 10h57v-20h-37v-37h27v-20h-27zM867 8v14c0 5 2 7 7 7h21c5 0 7 -2 7 -7
v-14c0 -5 -2 -7 -7 -7h-21c-5 0 -7 2 -7 7zM833 1h-7v28h25c5 0 7 -2 7 -6v-6c0 -3 -2 -5 -7 -5h-18v-11zM725 80v-20h-55v134l10 8l10 -8v-114h35zM809 21v3h-19v-6h18c5 0 7 -2 7 -7v-3c0 -5 -2 -7 -7 -7h-18c-5 0 -7 2 -7 7l5 1v-3h21v6h-18c-5 0 -7 2 -7 7v3
c0 5 2 7 7 7h16c5 0 7 -2 7 -6v-1zM765 21v2h-21v-17h21v6h-11v5h18v-9c0 -5 -2 -7 -7 -7h-20c-5 0 -7 2 -7 7v14c0 5 2 7 7 7h20c5 0 7 -2 7 -7zM656 60h-57v114l-7 10l7 10h57v-20h-37v-37h27v-20h-27v-37h37v-20zM691 8v14c0 5 2 7 7 7h22c5 0 7 -2 7 -7v-14
c0 -5 -2 -7 -7 -7h-22c-5 0 -7 2 -7 7zM684 1h-28v28h7v-23h21v-5zM549 58c-21 0 -32 11 -32 32v73c0 22 11 33 32 33s32 -11 32 -33v-15h-21v16c0 8 -4 12 -11 12c-8 0 -12 -4 -12 -12v-73c0 -8 4 -12 12 -12c7 0 11 4 11 12v26h-11l-8 9l8 11h32v-47
c0 -21 -11 -32 -32 -32zM636 1h-23v28h25c4 0 6 -2 6 -6v-3c0 -3 -1 -4 -4 -5c3 -1 5 -2 5 -5v-4c0 -3 -3 -5 -9 -5zM592 11h9v-10h-8c-1 0 -2 1 -2 2v6c0 1 0 1 1 2zM436 194h31c21 0 32 -11 32 -32v-19c0 -10 -4 -18 -11 -24l15 -59h-22l-12 51h-13v-51h-20v115l-7 9z
M584 1h-28v28h7v-23h21v-5zM546 1h-30v28h30v-5h-23v-6h13v-5h-13v-7h23v-5zM393 91h-21l-5 -31l-11 -6l-10 6l22 134h28l23 -134l-11 -6l-11 6zM498 21v2h-21v-17h21v6h-11v5h18v-9c0 -5 -2 -7 -7 -7h-20c-5 0 -7 2 -7 7v14c0 5 2 7 7 7h20c5 0 7 -2 7 -7zM436 1h-7v28h25
c4 0 6 -2 6 -6v-6c0 -4 -2 -6 -6 -6h-4l13 -10h-9l-12 10h-6v-10zM390 1h-7l16 28h7l16 -28h-7l-4 6h-18zM271 60v56l-27 78h22l15 -48l15 48h22l-27 -78v-56h-20zM369 1h-6v12l-15 16h9l9 -11l10 11h8l-15 -15v-13zM255 80v-20h-55v134l9 8l11 -8v-114h35zM352 1h-29v28h7
v-23h22v-5zM316 1h-28v28h6v-23h22v-5zM186 80v-20h-55v134l9 8l11 -8v-114h35zM275 1h-6v28h6v-28zM249 1h-23v28h25c4 0 6 -2 6 -6v-3c0 -3 -2 -4 -5 -5c3 -1 5 -2 5 -5v-4c0 -3 -3 -5 -8 -5zM204 0h-4l17 36h4zM113 194v-134l-11 -7l-10 7v134h21zM186 0h-4l17 36h4z
M171 29h5c1 0 1 0 2 -1v-9h-10v9c1 1 2 1 3 1zM168 11h10v-10h-9l-1 1v9zM44 60h-37v114l-7 9l7 11h30c23 0 35 -12 35 -37c0 -13 -5 -22 -14 -27c11 -4 17 -15 17 -32c0 -25 -10 -38 -31 -38zM134 1h-7v28h25c5 0 7 -2 7 -6v-6c0 -3 -2 -5 -7 -5h-18v-11zM119 24h-14v-23
h-6v23h-13v5h33v-5zM83 24h-13v-23h-7v23h-13v5h33v-5zM14 1h-7v28h7v-11h21v11h6v-28h-6v12h-21v-12zM625 341l22 14l-48 289h-60l-49 -289l23 -14l22 14l11 66h45l10 -66zM1021 23v-17h23v17h-23zM867 91v73c0 8 -4 12 -11 12c-8 0 -12 -4 -12 -12v-73c0 -8 4 -12 12 -12
c7 0 11 4 11 12zM873 23v-17h22v17h-22zM848 24h-15v-7h15c2 0 3 1 3 2v3c0 1 -1 2 -3 2zM698 23v-17h22v17h-22zM635 24h-15v-6h15c2 0 3 1 3 2v2c0 1 -1 2 -3 2zM635 13h-15v-7h15c2 0 3 1 3 2v3c0 1 -1 2 -3 2zM479 142v20c0 7 -4 11 -11 11h-12v-42h12c7 0 11 4 11 11z
M390 111l-8 52l-7 -52h15zM451 24h-15v-8h15c2 0 3 1 3 2v4c0 1 -1 2 -3 2zM402 24l-6 -12h13zM248 24h-16v-6h16c2 0 3 1 3 2v2c0 1 -1 2 -3 2zM248 13h-16v-7h16c2 0 3 1 3 2v3c0 1 -1 2 -3 2zM29 174v-35h8c9 0 14 6 14 18c0 11 -5 17 -14 17h-8zM149 24h-15v-7h15
c2 0 3 1 3 2v3c0 1 -1 2 -3 2zM29 120v-40h8c11 0 16 6 16 19c0 14 -5 21 -16 21h-8zM552 464l16 114l17 -114h-33z" />
    <glyph glyph-name="two" unicode="2" 
d="M1135 94c1 -23 -10 -35 -32 -35c-21 0 -33 13 -34 38l8 7l11 -6c1 -14 6 -21 14 -21c9 1 13 6 13 16c0 5 -5 14 -16 26c-8 7 -16 15 -23 23c-3 7 -5 13 -5 20c0 23 10 34 31 34c20 0 31 -10 32 -31l-19 -4c-1 11 -6 17 -13 17s-10 -5 -10 -15c0 -7 9 -19 26 -36
c11 -11 17 -22 17 -33zM1013 60v114h-21v20h63v-20h-22v-114l-10 -7zM1108 0h-4l17 36h4zM1067 1h-5v28h5l14 -17l13 17h5v-28h-6v19l-12 -16h-1l-13 16v-19zM482 608l88 192l85 -191l210 -24l-155 -140l43 -207l-182 104l-184 -104l43 204l-156 143zM906 194h23l26 -90v90
h21v-134h-22l-28 86v-86h-20v115l-7 9zM1015 8v14c0 5 2 7 7 7h21c5 0 7 -2 7 -7v-14c0 -5 -2 -7 -7 -7h-21c-5 0 -7 2 -7 7zM998 18v5h-18v-17h18v6l6 -1v-3c0 -5 -2 -7 -7 -7h-17c-5 0 -7 2 -7 7v14c0 5 2 7 7 7h17c5 0 7 -2 7 -7v-3zM856 196c21 0 32 -11 32 -32v-73
c0 -21 -11 -32 -32 -32s-32 11 -32 32v73c0 21 11 32 32 32zM952 11h9c1 -1 1 -1 1 -2v-6c0 -1 0 -1 -1 -2h-8c-1 0 -1 0 -1 1v9zM943 24h-13v-23h-7v23h-13v5h33v-5zM773 117v-57h-20v114l-7 10l7 10h57v-20h-37v-37h27v-20h-27zM867 8v14c0 5 2 7 7 7h21c5 0 7 -2 7 -7
v-14c0 -5 -2 -7 -7 -7h-21c-5 0 -7 2 -7 7zM833 1h-7v28h25c5 0 7 -2 7 -6v-6c0 -3 -2 -5 -7 -5h-18v-11zM725 80v-20h-55v134l10 8l10 -8v-114h35zM809 21v3h-19v-6h18c5 0 7 -2 7 -7v-3c0 -5 -2 -7 -7 -7h-18c-5 0 -7 2 -7 7l5 1v-3h21v6h-18c-5 0 -7 2 -7 7v3
c0 5 2 7 7 7h16c5 0 7 -2 7 -6v-1zM765 21v2h-21v-17h21v6h-11v5h18v-9c0 -5 -2 -7 -7 -7h-20c-5 0 -7 2 -7 7v14c0 5 2 7 7 7h20c5 0 7 -2 7 -7zM656 60h-57v114l-7 10l7 10h57v-20h-37v-37h27v-20h-27v-37h37v-20zM691 8v14c0 5 2 7 7 7h22c5 0 7 -2 7 -7v-14
c0 -5 -2 -7 -7 -7h-22c-5 0 -7 2 -7 7zM684 1h-28v28h7v-23h21v-5zM549 58c-21 0 -32 11 -32 32v73c0 22 11 33 32 33s32 -11 32 -33v-15h-21v16c0 8 -4 12 -11 12c-8 0 -12 -4 -12 -12v-73c0 -8 4 -12 12 -12c7 0 11 4 11 12v26h-11l-8 9l8 11h32v-47
c0 -21 -11 -32 -32 -32zM636 1h-23v28h25c4 0 6 -2 6 -6v-3c0 -3 -1 -4 -4 -5c3 -1 5 -2 5 -5v-4c0 -3 -3 -5 -9 -5zM592 11h9v-10h-8c-1 0 -2 1 -2 2v6c0 1 0 1 1 2zM436 194h31c21 0 32 -11 32 -32v-19c0 -10 -4 -18 -11 -24l15 -59h-22l-12 51h-13v-51h-20v115l-7 9z
M584 1h-28v28h7v-23h21v-5zM546 1h-30v28h30v-5h-23v-6h13v-5h-13v-7h23v-5zM393 91h-21l-5 -31l-11 -6l-10 6l22 134h28l23 -134l-11 -6l-11 6zM498 21v2h-21v-17h21v6h-11v5h18v-9c0 -5 -2 -7 -7 -7h-20c-5 0 -7 2 -7 7v14c0 5 2 7 7 7h20c5 0 7 -2 7 -7zM436 1h-7v28h25
c4 0 6 -2 6 -6v-6c0 -4 -2 -6 -6 -6h-4l13 -10h-9l-12 10h-6v-10zM390 1h-7l16 28h7l16 -28h-7l-4 6h-18zM271 60v56l-27 78h22l15 -48l15 48h22l-27 -78v-56h-20zM369 1h-6v12l-15 16h9l9 -11l10 11h8l-15 -15v-13zM255 80v-20h-55v134l9 8l11 -8v-114h35zM352 1h-29v28h7
v-23h22v-5zM316 1h-28v28h6v-23h22v-5zM186 80v-20h-55v134l9 8l11 -8v-114h35zM275 1h-6v28h6v-28zM249 1h-23v28h25c4 0 6 -2 6 -6v-3c0 -3 -2 -4 -5 -5c3 -1 5 -2 5 -5v-4c0 -3 -3 -5 -8 -5zM204 0h-4l17 36h4zM113 194v-134l-11 -7l-10 7v134h21zM186 0h-4l17 36h4z
M171 29h5c1 0 1 0 2 -1v-9h-10v9c1 1 2 1 3 1zM168 11h10v-10h-9l-1 1v9zM44 60h-37v114l-7 9l7 11h30c23 0 35 -12 35 -37c0 -13 -5 -22 -14 -27c11 -4 17 -15 17 -32c0 -25 -10 -38 -31 -38zM134 1h-7v28h25c5 0 7 -2 7 -6v-6c0 -3 -2 -5 -7 -5h-18v-11zM119 24h-14v-23
h-6v23h-13v5h33v-5zM83 24h-13v-23h-7v23h-13v5h33v-5zM14 1h-7v28h7v-11h21v11h6v-28h-6v12h-21v-12zM625 341l22 14l-48 289h-60l-49 -289l23 -14l22 14l11 66h45l10 -66zM1021 23v-17h23v17h-23zM867 91v73c0 8 -4 12 -11 12c-8 0 -12 -4 -12 -12v-73c0 -8 4 -12 12 -12
c7 0 11 4 11 12zM873 23v-17h22v17h-22zM848 24h-15v-7h15c2 0 3 1 3 2v3c0 1 -1 2 -3 2zM698 23v-17h22v17h-22zM635 24h-15v-6h15c2 0 3 1 3 2v2c0 1 -1 2 -3 2zM635 13h-15v-7h15c2 0 3 1 3 2v3c0 1 -1 2 -3 2zM479 142v20c0 7 -4 11 -11 11h-12v-42h12c7 0 11 4 11 11z
M390 111l-8 52l-7 -52h15zM451 24h-15v-8h15c2 0 3 1 3 2v4c0 1 -1 2 -3 2zM402 24l-6 -12h13zM248 24h-16v-6h16c2 0 3 1 3 2v2c0 1 -1 2 -3 2zM248 13h-16v-7h16c2 0 3 1 3 2v3c0 1 -1 2 -3 2zM29 174v-35h8c9 0 14 6 14 18c0 11 -5 17 -14 17h-8zM149 24h-15v-7h15
c2 0 3 1 3 2v3c0 1 -1 2 -3 2zM29 120v-40h8c11 0 16 6 16 19c0 14 -5 21 -16 21h-8zM552 464l16 114l17 -114h-33z" />
    <glyph glyph-name="three" unicode="3" 
d="M1135 94c1 -23 -10 -35 -32 -35c-21 0 -33 13 -34 38l8 7l11 -6c1 -14 6 -21 14 -21c9 1 13 6 13 16c0 5 -5 14 -16 26c-8 7 -16 15 -23 23c-3 7 -5 13 -5 20c0 23 10 34 31 34c20 0 31 -10 32 -31l-19 -4c-1 11 -6 17 -13 17s-10 -5 -10 -15c0 -7 9 -19 26 -36
c11 -11 17 -22 17 -33zM1013 60v114h-21v20h63v-20h-22v-114l-10 -7zM1108 0h-4l17 36h4zM1067 1h-5v28h5l14 -17l13 17h5v-28h-6v19l-12 -16h-1l-13 16v-19zM482 608l88 192l85 -191l210 -24l-155 -140l43 -207l-182 104l-184 -104l43 204l-156 143zM906 194h23l26 -90v90
h21v-134h-22l-28 86v-86h-20v115l-7 9zM1015 8v14c0 5 2 7 7 7h21c5 0 7 -2 7 -7v-14c0 -5 -2 -7 -7 -7h-21c-5 0 -7 2 -7 7zM998 18v5h-18v-17h18v6l6 -1v-3c0 -5 -2 -7 -7 -7h-17c-5 0 -7 2 -7 7v14c0 5 2 7 7 7h17c5 0 7 -2 7 -7v-3zM856 196c21 0 32 -11 32 -32v-73
c0 -21 -11 -32 -32 -32s-32 11 -32 32v73c0 21 11 32 32 32zM952 11h9c1 -1 1 -1 1 -2v-6c0 -1 0 -1 -1 -2h-8c-1 0 -1 0 -1 1v9zM943 24h-13v-23h-7v23h-13v5h33v-5zM773 117v-57h-20v114l-7 10l7 10h57v-20h-37v-37h27v-20h-27zM867 8v14c0 5 2 7 7 7h21c5 0 7 -2 7 -7
v-14c0 -5 -2 -7 -7 -7h-21c-5 0 -7 2 -7 7zM833 1h-7v28h25c5 0 7 -2 7 -6v-6c0 -3 -2 -5 -7 -5h-18v-11zM725 80v-20h-55v134l10 8l10 -8v-114h35zM809 21v3h-19v-6h18c5 0 7 -2 7 -7v-3c0 -5 -2 -7 -7 -7h-18c-5 0 -7 2 -7 7l5 1v-3h21v6h-18c-5 0 -7 2 -7 7v3
c0 5 2 7 7 7h16c5 0 7 -2 7 -6v-1zM765 21v2h-21v-17h21v6h-11v5h18v-9c0 -5 -2 -7 -7 -7h-20c-5 0 -7 2 -7 7v14c0 5 2 7 7 7h20c5 0 7 -2 7 -7zM656 60h-57v114l-7 10l7 10h57v-20h-37v-37h27v-20h-27v-37h37v-20zM691 8v14c0 5 2 7 7 7h22c5 0 7 -2 7 -7v-14
c0 -5 -2 -7 -7 -7h-22c-5 0 -7 2 -7 7zM684 1h-28v28h7v-23h21v-5zM549 58c-21 0 -32 11 -32 32v73c0 22 11 33 32 33s32 -11 32 -33v-15h-21v16c0 8 -4 12 -11 12c-8 0 -12 -4 -12 -12v-73c0 -8 4 -12 12 -12c7 0 11 4 11 12v26h-11l-8 9l8 11h32v-47
c0 -21 -11 -32 -32 -32zM636 1h-23v28h25c4 0 6 -2 6 -6v-3c0 -3 -1 -4 -4 -5c3 -1 5 -2 5 -5v-4c0 -3 -3 -5 -9 -5zM592 11h9v-10h-8c-1 0 -2 1 -2 2v6c0 1 0 1 1 2zM436 194h31c21 0 32 -11 32 -32v-19c0 -10 -4 -18 -11 -24l15 -59h-22l-12 51h-13v-51h-20v115l-7 9z
M584 1h-28v28h7v-23h21v-5zM546 1h-30v28h30v-5h-23v-6h13v-5h-13v-7h23v-5zM393 91h-21l-5 -31l-11 -6l-10 6l22 134h28l23 -134l-11 -6l-11 6zM498 21v2h-21v-17h21v6h-11v5h18v-9c0 -5 -2 -7 -7 -7h-20c-5 0 -7 2 -7 7v14c0 5 2 7 7 7h20c5 0 7 -2 7 -7zM436 1h-7v28h25
c4 0 6 -2 6 -6v-6c0 -4 -2 -6 -6 -6h-4l13 -10h-9l-12 10h-6v-10zM390 1h-7l16 28h7l16 -28h-7l-4 6h-18zM271 60v56l-27 78h22l15 -48l15 48h22l-27 -78v-56h-20zM369 1h-6v12l-15 16h9l9 -11l10 11h8l-15 -15v-13zM255 80v-20h-55v134l9 8l11 -8v-114h35zM352 1h-29v28h7
v-23h22v-5zM316 1h-28v28h6v-23h22v-5zM186 80v-20h-55v134l9 8l11 -8v-114h35zM275 1h-6v28h6v-28zM249 1h-23v28h25c4 0 6 -2 6 -6v-3c0 -3 -2 -4 -5 -5c3 -1 5 -2 5 -5v-4c0 -3 -3 -5 -8 -5zM204 0h-4l17 36h4zM113 194v-134l-11 -7l-10 7v134h21zM186 0h-4l17 36h4z
M171 29h5c1 0 1 0 2 -1v-9h-10v9c1 1 2 1 3 1zM168 11h10v-10h-9l-1 1v9zM44 60h-37v114l-7 9l7 11h30c23 0 35 -12 35 -37c0 -13 -5 -22 -14 -27c11 -4 17 -15 17 -32c0 -25 -10 -38 -31 -38zM134 1h-7v28h25c5 0 7 -2 7 -6v-6c0 -3 -2 -5 -7 -5h-18v-11zM119 24h-14v-23
h-6v23h-13v5h33v-5zM83 24h-13v-23h-7v23h-13v5h33v-5zM14 1h-7v28h7v-11h21v11h6v-28h-6v12h-21v-12zM625 341l22 14l-48 289h-60l-49 -289l23 -14l22 14l11 66h45l10 -66zM1021 23v-17h23v17h-23zM867 91v73c0 8 -4 12 -11 12c-8 0 -12 -4 -12 -12v-73c0 -8 4 -12 12 -12
c7 0 11 4 11 12zM873 23v-17h22v17h-22zM848 24h-15v-7h15c2 0 3 1 3 2v3c0 1 -1 2 -3 2zM698 23v-17h22v17h-22zM635 24h-15v-6h15c2 0 3 1 3 2v2c0 1 -1 2 -3 2zM635 13h-15v-7h15c2 0 3 1 3 2v3c0 1 -1 2 -3 2zM479 142v20c0 7 -4 11 -11 11h-12v-42h12c7 0 11 4 11 11z
M390 111l-8 52l-7 -52h15zM451 24h-15v-8h15c2 0 3 1 3 2v4c0 1 -1 2 -3 2zM402 24l-6 -12h13zM248 24h-16v-6h16c2 0 3 1 3 2v2c0 1 -1 2 -3 2zM248 13h-16v-7h16c2 0 3 1 3 2v3c0 1 -1 2 -3 2zM29 174v-35h8c9 0 14 6 14 18c0 11 -5 17 -14 17h-8zM149 24h-15v-7h15
c2 0 3 1 3 2v3c0 1 -1 2 -3 2zM29 120v-40h8c11 0 16 6 16 19c0 14 -5 21 -16 21h-8zM552 464l16 114l17 -114h-33z" />
    <glyph glyph-name="four" unicode="4" 
d="M1135 94c1 -23 -10 -35 -32 -35c-21 0 -33 13 -34 38l8 7l11 -6c1 -14 6 -21 14 -21c9 1 13 6 13 16c0 5 -5 14 -16 26c-8 7 -16 15 -23 23c-3 7 -5 13 -5 20c0 23 10 34 31 34c20 0 31 -10 32 -31l-19 -4c-1 11 -6 17 -13 17s-10 -5 -10 -15c0 -7 9 -19 26 -36
c11 -11 17 -22 17 -33zM1013 60v114h-21v20h63v-20h-22v-114l-10 -7zM1108 0h-4l17 36h4zM1067 1h-5v28h5l14 -17l13 17h5v-28h-6v19l-12 -16h-1l-13 16v-19zM482 608l88 192l85 -191l210 -24l-155 -140l43 -207l-182 104l-184 -104l43 204l-156 143zM906 194h23l26 -90v90
h21v-134h-22l-28 86v-86h-20v115l-7 9zM1015 8v14c0 5 2 7 7 7h21c5 0 7 -2 7 -7v-14c0 -5 -2 -7 -7 -7h-21c-5 0 -7 2 -7 7zM998 18v5h-18v-17h18v6l6 -1v-3c0 -5 -2 -7 -7 -7h-17c-5 0 -7 2 -7 7v14c0 5 2 7 7 7h17c5 0 7 -2 7 -7v-3zM856 196c21 0 32 -11 32 -32v-73
c0 -21 -11 -32 -32 -32s-32 11 -32 32v73c0 21 11 32 32 32zM952 11h9c1 -1 1 -1 1 -2v-6c0 -1 0 -1 -1 -2h-8c-1 0 -1 0 -1 1v9zM943 24h-13v-23h-7v23h-13v5h33v-5zM773 117v-57h-20v114l-7 10l7 10h57v-20h-37v-37h27v-20h-27zM867 8v14c0 5 2 7 7 7h21c5 0 7 -2 7 -7
v-14c0 -5 -2 -7 -7 -7h-21c-5 0 -7 2 -7 7zM833 1h-7v28h25c5 0 7 -2 7 -6v-6c0 -3 -2 -5 -7 -5h-18v-11zM725 80v-20h-55v134l10 8l10 -8v-114h35zM809 21v3h-19v-6h18c5 0 7 -2 7 -7v-3c0 -5 -2 -7 -7 -7h-18c-5 0 -7 2 -7 7l5 1v-3h21v6h-18c-5 0 -7 2 -7 7v3
c0 5 2 7 7 7h16c5 0 7 -2 7 -6v-1zM765 21v2h-21v-17h21v6h-11v5h18v-9c0 -5 -2 -7 -7 -7h-20c-5 0 -7 2 -7 7v14c0 5 2 7 7 7h20c5 0 7 -2 7 -7zM656 60h-57v114l-7 10l7 10h57v-20h-37v-37h27v-20h-27v-37h37v-20zM691 8v14c0 5 2 7 7 7h22c5 0 7 -2 7 -7v-14
c0 -5 -2 -7 -7 -7h-22c-5 0 -7 2 -7 7zM684 1h-28v28h7v-23h21v-5zM549 58c-21 0 -32 11 -32 32v73c0 22 11 33 32 33s32 -11 32 -33v-15h-21v16c0 8 -4 12 -11 12c-8 0 -12 -4 -12 -12v-73c0 -8 4 -12 12 -12c7 0 11 4 11 12v26h-11l-8 9l8 11h32v-47
c0 -21 -11 -32 -32 -32zM636 1h-23v28h25c4 0 6 -2 6 -6v-3c0 -3 -1 -4 -4 -5c3 -1 5 -2 5 -5v-4c0 -3 -3 -5 -9 -5zM592 11h9v-10h-8c-1 0 -2 1 -2 2v6c0 1 0 1 1 2zM436 194h31c21 0 32 -11 32 -32v-19c0 -10 -4 -18 -11 -24l15 -59h-22l-12 51h-13v-51h-20v115l-7 9z
M584 1h-28v28h7v-23h21v-5zM546 1h-30v28h30v-5h-23v-6h13v-5h-13v-7h23v-5zM393 91h-21l-5 -31l-11 -6l-10 6l22 134h28l23 -134l-11 -6l-11 6zM498 21v2h-21v-17h21v6h-11v5h18v-9c0 -5 -2 -7 -7 -7h-20c-5 0 -7 2 -7 7v14c0 5 2 7 7 7h20c5 0 7 -2 7 -7zM436 1h-7v28h25
c4 0 6 -2 6 -6v-6c0 -4 -2 -6 -6 -6h-4l13 -10h-9l-12 10h-6v-10zM390 1h-7l16 28h7l16 -28h-7l-4 6h-18zM271 60v56l-27 78h22l15 -48l15 48h22l-27 -78v-56h-20zM369 1h-6v12l-15 16h9l9 -11l10 11h8l-15 -15v-13zM255 80v-20h-55v134l9 8l11 -8v-114h35zM352 1h-29v28h7
v-23h22v-5zM316 1h-28v28h6v-23h22v-5zM186 80v-20h-55v134l9 8l11 -8v-114h35zM275 1h-6v28h6v-28zM249 1h-23v28h25c4 0 6 -2 6 -6v-3c0 -3 -2 -4 -5 -5c3 -1 5 -2 5 -5v-4c0 -3 -3 -5 -8 -5zM204 0h-4l17 36h4zM113 194v-134l-11 -7l-10 7v134h21zM186 0h-4l17 36h4z
M171 29h5c1 0 1 0 2 -1v-9h-10v9c1 1 2 1 3 1zM168 11h10v-10h-9l-1 1v9zM44 60h-37v114l-7 9l7 11h30c23 0 35 -12 35 -37c0 -13 -5 -22 -14 -27c11 -4 17 -15 17 -32c0 -25 -10 -38 -31 -38zM134 1h-7v28h25c5 0 7 -2 7 -6v-6c0 -3 -2 -5 -7 -5h-18v-11zM119 24h-14v-23
h-6v23h-13v5h33v-5zM83 24h-13v-23h-7v23h-13v5h33v-5zM14 1h-7v28h7v-11h21v11h6v-28h-6v12h-21v-12zM625 341l22 14l-48 289h-60l-49 -289l23 -14l22 14l11 66h45l10 -66zM1021 23v-17h23v17h-23zM867 91v73c0 8 -4 12 -11 12c-8 0 -12 -4 -12 -12v-73c0 -8 4 -12 12 -12
c7 0 11 4 11 12zM873 23v-17h22v17h-22zM848 24h-15v-7h15c2 0 3 1 3 2v3c0 1 -1 2 -3 2zM698 23v-17h22v17h-22zM635 24h-15v-6h15c2 0 3 1 3 2v2c0 1 -1 2 -3 2zM635 13h-15v-7h15c2 0 3 1 3 2v3c0 1 -1 2 -3 2zM479 142v20c0 7 -4 11 -11 11h-12v-42h12c7 0 11 4 11 11z
M390 111l-8 52l-7 -52h15zM451 24h-15v-8h15c2 0 3 1 3 2v4c0 1 -1 2 -3 2zM402 24l-6 -12h13zM248 24h-16v-6h16c2 0 3 1 3 2v2c0 1 -1 2 -3 2zM248 13h-16v-7h16c2 0 3 1 3 2v3c0 1 -1 2 -3 2zM29 174v-35h8c9 0 14 6 14 18c0 11 -5 17 -14 17h-8zM149 24h-15v-7h15
c2 0 3 1 3 2v3c0 1 -1 2 -3 2zM29 120v-40h8c11 0 16 6 16 19c0 14 -5 21 -16 21h-8zM552 464l16 114l17 -114h-33z" />
    <glyph glyph-name="five" unicode="5" 
d="M1135 94c1 -23 -10 -35 -32 -35c-21 0 -33 13 -34 38l8 7l11 -6c1 -14 6 -21 14 -21c9 1 13 6 13 16c0 5 -5 14 -16 26c-8 7 -16 15 -23 23c-3 7 -5 13 -5 20c0 23 10 34 31 34c20 0 31 -10 32 -31l-19 -4c-1 11 -6 17 -13 17s-10 -5 -10 -15c0 -7 9 -19 26 -36
c11 -11 17 -22 17 -33zM1013 60v114h-21v20h63v-20h-22v-114l-10 -7zM1108 0h-4l17 36h4zM1067 1h-5v28h5l14 -17l13 17h5v-28h-6v19l-12 -16h-1l-13 16v-19zM482 608l88 192l85 -191l210 -24l-155 -140l43 -207l-182 104l-184 -104l43 204l-156 143zM906 194h23l26 -90v90
h21v-134h-22l-28 86v-86h-20v115l-7 9zM1015 8v14c0 5 2 7 7 7h21c5 0 7 -2 7 -7v-14c0 -5 -2 -7 -7 -7h-21c-5 0 -7 2 -7 7zM998 18v5h-18v-17h18v6l6 -1v-3c0 -5 -2 -7 -7 -7h-17c-5 0 -7 2 -7 7v14c0 5 2 7 7 7h17c5 0 7 -2 7 -7v-3zM856 196c21 0 32 -11 32 -32v-73
c0 -21 -11 -32 -32 -32s-32 11 -32 32v73c0 21 11 32 32 32zM952 11h9c1 -1 1 -1 1 -2v-6c0 -1 0 -1 -1 -2h-8c-1 0 -1 0 -1 1v9zM943 24h-13v-23h-7v23h-13v5h33v-5zM773 117v-57h-20v114l-7 10l7 10h57v-20h-37v-37h27v-20h-27zM867 8v14c0 5 2 7 7 7h21c5 0 7 -2 7 -7
v-14c0 -5 -2 -7 -7 -7h-21c-5 0 -7 2 -7 7zM833 1h-7v28h25c5 0 7 -2 7 -6v-6c0 -3 -2 -5 -7 -5h-18v-11zM725 80v-20h-55v134l10 8l10 -8v-114h35zM809 21v3h-19v-6h18c5 0 7 -2 7 -7v-3c0 -5 -2 -7 -7 -7h-18c-5 0 -7 2 -7 7l5 1v-3h21v6h-18c-5 0 -7 2 -7 7v3
c0 5 2 7 7 7h16c5 0 7 -2 7 -6v-1zM765 21v2h-21v-17h21v6h-11v5h18v-9c0 -5 -2 -7 -7 -7h-20c-5 0 -7 2 -7 7v14c0 5 2 7 7 7h20c5 0 7 -2 7 -7zM656 60h-57v114l-7 10l7 10h57v-20h-37v-37h27v-20h-27v-37h37v-20zM691 8v14c0 5 2 7 7 7h22c5 0 7 -2 7 -7v-14
c0 -5 -2 -7 -7 -7h-22c-5 0 -7 2 -7 7zM684 1h-28v28h7v-23h21v-5zM549 58c-21 0 -32 11 -32 32v73c0 22 11 33 32 33s32 -11 32 -33v-15h-21v16c0 8 -4 12 -11 12c-8 0 -12 -4 -12 -12v-73c0 -8 4 -12 12 -12c7 0 11 4 11 12v26h-11l-8 9l8 11h32v-47
c0 -21 -11 -32 -32 -32zM636 1h-23v28h25c4 0 6 -2 6 -6v-3c0 -3 -1 -4 -4 -5c3 -1 5 -2 5 -5v-4c0 -3 -3 -5 -9 -5zM592 11h9v-10h-8c-1 0 -2 1 -2 2v6c0 1 0 1 1 2zM436 194h31c21 0 32 -11 32 -32v-19c0 -10 -4 -18 -11 -24l15 -59h-22l-12 51h-13v-51h-20v115l-7 9z
M584 1h-28v28h7v-23h21v-5zM546 1h-30v28h30v-5h-23v-6h13v-5h-13v-7h23v-5zM393 91h-21l-5 -31l-11 -6l-10 6l22 134h28l23 -134l-11 -6l-11 6zM498 21v2h-21v-17h21v6h-11v5h18v-9c0 -5 -2 -7 -7 -7h-20c-5 0 -7 2 -7 7v14c0 5 2 7 7 7h20c5 0 7 -2 7 -7zM436 1h-7v28h25
c4 0 6 -2 6 -6v-6c0 -4 -2 -6 -6 -6h-4l13 -10h-9l-12 10h-6v-10zM390 1h-7l16 28h7l16 -28h-7l-4 6h-18zM271 60v56l-27 78h22l15 -48l15 48h22l-27 -78v-56h-20zM369 1h-6v12l-15 16h9l9 -11l10 11h8l-15 -15v-13zM255 80v-20h-55v134l9 8l11 -8v-114h35zM352 1h-29v28h7
v-23h22v-5zM316 1h-28v28h6v-23h22v-5zM186 80v-20h-55v134l9 8l11 -8v-114h35zM275 1h-6v28h6v-28zM249 1h-23v28h25c4 0 6 -2 6 -6v-3c0 -3 -2 -4 -5 -5c3 -1 5 -2 5 -5v-4c0 -3 -3 -5 -8 -5zM204 0h-4l17 36h4zM113 194v-134l-11 -7l-10 7v134h21zM186 0h-4l17 36h4z
M171 29h5c1 0 1 0 2 -1v-9h-10v9c1 1 2 1 3 1zM168 11h10v-10h-9l-1 1v9zM44 60h-37v114l-7 9l7 11h30c23 0 35 -12 35 -37c0 -13 -5 -22 -14 -27c11 -4 17 -15 17 -32c0 -25 -10 -38 -31 -38zM134 1h-7v28h25c5 0 7 -2 7 -6v-6c0 -3 -2 -5 -7 -5h-18v-11zM119 24h-14v-23
h-6v23h-13v5h33v-5zM83 24h-13v-23h-7v23h-13v5h33v-5zM14 1h-7v28h7v-11h21v11h6v-28h-6v12h-21v-12zM625 341l22 14l-48 289h-60l-49 -289l23 -14l22 14l11 66h45l10 -66zM1021 23v-17h23v17h-23zM867 91v73c0 8 -4 12 -11 12c-8 0 -12 -4 -12 -12v-73c0 -8 4 -12 12 -12
c7 0 11 4 11 12zM873 23v-17h22v17h-22zM848 24h-15v-7h15c2 0 3 1 3 2v3c0 1 -1 2 -3 2zM698 23v-17h22v17h-22zM635 24h-15v-6h15c2 0 3 1 3 2v2c0 1 -1 2 -3 2zM635 13h-15v-7h15c2 0 3 1 3 2v3c0 1 -1 2 -3 2zM479 142v20c0 7 -4 11 -11 11h-12v-42h12c7 0 11 4 11 11z
M390 111l-8 52l-7 -52h15zM451 24h-15v-8h15c2 0 3 1 3 2v4c0 1 -1 2 -3 2zM402 24l-6 -12h13zM248 24h-16v-6h16c2 0 3 1 3 2v2c0 1 -1 2 -3 2zM248 13h-16v-7h16c2 0 3 1 3 2v3c0 1 -1 2 -3 2zM29 174v-35h8c9 0 14 6 14 18c0 11 -5 17 -14 17h-8zM149 24h-15v-7h15
c2 0 3 1 3 2v3c0 1 -1 2 -3 2zM29 120v-40h8c11 0 16 6 16 19c0 14 -5 21 -16 21h-8zM552 464l16 114l17 -114h-33z" />
    <glyph glyph-name="six" unicode="6" 
d="M1135 94c1 -23 -10 -35 -32 -35c-21 0 -33 13 -34 38l8 7l11 -6c1 -14 6 -21 14 -21c9 1 13 6 13 16c0 5 -5 14 -16 26c-8 7 -16 15 -23 23c-3 7 -5 13 -5 20c0 23 10 34 31 34c20 0 31 -10 32 -31l-19 -4c-1 11 -6 17 -13 17s-10 -5 -10 -15c0 -7 9 -19 26 -36
c11 -11 17 -22 17 -33zM1013 60v114h-21v20h63v-20h-22v-114l-10 -7zM1108 0h-4l17 36h4zM1067 1h-5v28h5l14 -17l13 17h5v-28h-6v19l-12 -16h-1l-13 16v-19zM482 608l88 192l85 -191l210 -24l-155 -140l43 -207l-182 104l-184 -104l43 204l-156 143zM906 194h23l26 -90v90
h21v-134h-22l-28 86v-86h-20v115l-7 9zM1015 8v14c0 5 2 7 7 7h21c5 0 7 -2 7 -7v-14c0 -5 -2 -7 -7 -7h-21c-5 0 -7 2 -7 7zM998 18v5h-18v-17h18v6l6 -1v-3c0 -5 -2 -7 -7 -7h-17c-5 0 -7 2 -7 7v14c0 5 2 7 7 7h17c5 0 7 -2 7 -7v-3zM856 196c21 0 32 -11 32 -32v-73
c0 -21 -11 -32 -32 -32s-32 11 -32 32v73c0 21 11 32 32 32zM952 11h9c1 -1 1 -1 1 -2v-6c0 -1 0 -1 -1 -2h-8c-1 0 -1 0 -1 1v9zM943 24h-13v-23h-7v23h-13v5h33v-5zM773 117v-57h-20v114l-7 10l7 10h57v-20h-37v-37h27v-20h-27zM867 8v14c0 5 2 7 7 7h21c5 0 7 -2 7 -7
v-14c0 -5 -2 -7 -7 -7h-21c-5 0 -7 2 -7 7zM833 1h-7v28h25c5 0 7 -2 7 -6v-6c0 -3 -2 -5 -7 -5h-18v-11zM725 80v-20h-55v134l10 8l10 -8v-114h35zM809 21v3h-19v-6h18c5 0 7 -2 7 -7v-3c0 -5 -2 -7 -7 -7h-18c-5 0 -7 2 -7 7l5 1v-3h21v6h-18c-5 0 -7 2 -7 7v3
c0 5 2 7 7 7h16c5 0 7 -2 7 -6v-1zM765 21v2h-21v-17h21v6h-11v5h18v-9c0 -5 -2 -7 -7 -7h-20c-5 0 -7 2 -7 7v14c0 5 2 7 7 7h20c5 0 7 -2 7 -7zM656 60h-57v114l-7 10l7 10h57v-20h-37v-37h27v-20h-27v-37h37v-20zM691 8v14c0 5 2 7 7 7h22c5 0 7 -2 7 -7v-14
c0 -5 -2 -7 -7 -7h-22c-5 0 -7 2 -7 7zM684 1h-28v28h7v-23h21v-5zM549 58c-21 0 -32 11 -32 32v73c0 22 11 33 32 33s32 -11 32 -33v-15h-21v16c0 8 -4 12 -11 12c-8 0 -12 -4 -12 -12v-73c0 -8 4 -12 12 -12c7 0 11 4 11 12v26h-11l-8 9l8 11h32v-47
c0 -21 -11 -32 -32 -32zM636 1h-23v28h25c4 0 6 -2 6 -6v-3c0 -3 -1 -4 -4 -5c3 -1 5 -2 5 -5v-4c0 -3 -3 -5 -9 -5zM592 11h9v-10h-8c-1 0 -2 1 -2 2v6c0 1 0 1 1 2zM436 194h31c21 0 32 -11 32 -32v-19c0 -10 -4 -18 -11 -24l15 -59h-22l-12 51h-13v-51h-20v115l-7 9z
M584 1h-28v28h7v-23h21v-5zM546 1h-30v28h30v-5h-23v-6h13v-5h-13v-7h23v-5zM393 91h-21l-5 -31l-11 -6l-10 6l22 134h28l23 -134l-11 -6l-11 6zM498 21v2h-21v-17h21v6h-11v5h18v-9c0 -5 -2 -7 -7 -7h-20c-5 0 -7 2 -7 7v14c0 5 2 7 7 7h20c5 0 7 -2 7 -7zM436 1h-7v28h25
c4 0 6 -2 6 -6v-6c0 -4 -2 -6 -6 -6h-4l13 -10h-9l-12 10h-6v-10zM390 1h-7l16 28h7l16 -28h-7l-4 6h-18zM271 60v56l-27 78h22l15 -48l15 48h22l-27 -78v-56h-20zM369 1h-6v12l-15 16h9l9 -11l10 11h8l-15 -15v-13zM255 80v-20h-55v134l9 8l11 -8v-114h35zM352 1h-29v28h7
v-23h22v-5zM316 1h-28v28h6v-23h22v-5zM186 80v-20h-55v134l9 8l11 -8v-114h35zM275 1h-6v28h6v-28zM249 1h-23v28h25c4 0 6 -2 6 -6v-3c0 -3 -2 -4 -5 -5c3 -1 5 -2 5 -5v-4c0 -3 -3 -5 -8 -5zM204 0h-4l17 36h4zM113 194v-134l-11 -7l-10 7v134h21zM186 0h-4l17 36h4z
M171 29h5c1 0 1 0 2 -1v-9h-10v9c1 1 2 1 3 1zM168 11h10v-10h-9l-1 1v9zM44 60h-37v114l-7 9l7 11h30c23 0 35 -12 35 -37c0 -13 -5 -22 -14 -27c11 -4 17 -15 17 -32c0 -25 -10 -38 -31 -38zM134 1h-7v28h25c5 0 7 -2 7 -6v-6c0 -3 -2 -5 -7 -5h-18v-11zM119 24h-14v-23
h-6v23h-13v5h33v-5zM83 24h-13v-23h-7v23h-13v5h33v-5zM14 1h-7v28h7v-11h21v11h6v-28h-6v12h-21v-12zM625 341l22 14l-48 289h-60l-49 -289l23 -14l22 14l11 66h45l10 -66zM1021 23v-17h23v17h-23zM867 91v73c0 8 -4 12 -11 12c-8 0 -12 -4 -12 -12v-73c0 -8 4 -12 12 -12
c7 0 11 4 11 12zM873 23v-17h22v17h-22zM848 24h-15v-7h15c2 0 3 1 3 2v3c0 1 -1 2 -3 2zM698 23v-17h22v17h-22zM635 24h-15v-6h15c2 0 3 1 3 2v2c0 1 -1 2 -3 2zM635 13h-15v-7h15c2 0 3 1 3 2v3c0 1 -1 2 -3 2zM479 142v20c0 7 -4 11 -11 11h-12v-42h12c7 0 11 4 11 11z
M390 111l-8 52l-7 -52h15zM451 24h-15v-8h15c2 0 3 1 3 2v4c0 1 -1 2 -3 2zM402 24l-6 -12h13zM248 24h-16v-6h16c2 0 3 1 3 2v2c0 1 -1 2 -3 2zM248 13h-16v-7h16c2 0 3 1 3 2v3c0 1 -1 2 -3 2zM29 174v-35h8c9 0 14 6 14 18c0 11 -5 17 -14 17h-8zM149 24h-15v-7h15
c2 0 3 1 3 2v3c0 1 -1 2 -3 2zM29 120v-40h8c11 0 16 6 16 19c0 14 -5 21 -16 21h-8zM552 464l16 114l17 -114h-33z" />
    <glyph glyph-name="seven" unicode="7" 
d="M1135 94c1 -23 -10 -35 -32 -35c-21 0 -33 13 -34 38l8 7l11 -6c1 -14 6 -21 14 -21c9 1 13 6 13 16c0 5 -5 14 -16 26c-8 7 -16 15 -23 23c-3 7 -5 13 -5 20c0 23 10 34 31 34c20 0 31 -10 32 -31l-19 -4c-1 11 -6 17 -13 17s-10 -5 -10 -15c0 -7 9 -19 26 -36
c11 -11 17 -22 17 -33zM1013 60v114h-21v20h63v-20h-22v-114l-10 -7zM1108 0h-4l17 36h4zM1067 1h-5v28h5l14 -17l13 17h5v-28h-6v19l-12 -16h-1l-13 16v-19zM482 608l88 192l85 -191l210 -24l-155 -140l43 -207l-182 104l-184 -104l43 204l-156 143zM906 194h23l26 -90v90
h21v-134h-22l-28 86v-86h-20v115l-7 9zM1015 8v14c0 5 2 7 7 7h21c5 0 7 -2 7 -7v-14c0 -5 -2 -7 -7 -7h-21c-5 0 -7 2 -7 7zM998 18v5h-18v-17h18v6l6 -1v-3c0 -5 -2 -7 -7 -7h-17c-5 0 -7 2 -7 7v14c0 5 2 7 7 7h17c5 0 7 -2 7 -7v-3zM856 196c21 0 32 -11 32 -32v-73
c0 -21 -11 -32 -32 -32s-32 11 -32 32v73c0 21 11 32 32 32zM952 11h9c1 -1 1 -1 1 -2v-6c0 -1 0 -1 -1 -2h-8c-1 0 -1 0 -1 1v9zM943 24h-13v-23h-7v23h-13v5h33v-5zM773 117v-57h-20v114l-7 10l7 10h57v-20h-37v-37h27v-20h-27zM867 8v14c0 5 2 7 7 7h21c5 0 7 -2 7 -7
v-14c0 -5 -2 -7 -7 -7h-21c-5 0 -7 2 -7 7zM833 1h-7v28h25c5 0 7 -2 7 -6v-6c0 -3 -2 -5 -7 -5h-18v-11zM725 80v-20h-55v134l10 8l10 -8v-114h35zM809 21v3h-19v-6h18c5 0 7 -2 7 -7v-3c0 -5 -2 -7 -7 -7h-18c-5 0 -7 2 -7 7l5 1v-3h21v6h-18c-5 0 -7 2 -7 7v3
c0 5 2 7 7 7h16c5 0 7 -2 7 -6v-1zM765 21v2h-21v-17h21v6h-11v5h18v-9c0 -5 -2 -7 -7 -7h-20c-5 0 -7 2 -7 7v14c0 5 2 7 7 7h20c5 0 7 -2 7 -7zM656 60h-57v114l-7 10l7 10h57v-20h-37v-37h27v-20h-27v-37h37v-20zM691 8v14c0 5 2 7 7 7h22c5 0 7 -2 7 -7v-14
c0 -5 -2 -7 -7 -7h-22c-5 0 -7 2 -7 7zM684 1h-28v28h7v-23h21v-5zM549 58c-21 0 -32 11 -32 32v73c0 22 11 33 32 33s32 -11 32 -33v-15h-21v16c0 8 -4 12 -11 12c-8 0 -12 -4 -12 -12v-73c0 -8 4 -12 12 -12c7 0 11 4 11 12v26h-11l-8 9l8 11h32v-47
c0 -21 -11 -32 -32 -32zM636 1h-23v28h25c4 0 6 -2 6 -6v-3c0 -3 -1 -4 -4 -5c3 -1 5 -2 5 -5v-4c0 -3 -3 -5 -9 -5zM592 11h9v-10h-8c-1 0 -2 1 -2 2v6c0 1 0 1 1 2zM436 194h31c21 0 32 -11 32 -32v-19c0 -10 -4 -18 -11 -24l15 -59h-22l-12 51h-13v-51h-20v115l-7 9z
M584 1h-28v28h7v-23h21v-5zM546 1h-30v28h30v-5h-23v-6h13v-5h-13v-7h23v-5zM393 91h-21l-5 -31l-11 -6l-10 6l22 134h28l23 -134l-11 -6l-11 6zM498 21v2h-21v-17h21v6h-11v5h18v-9c0 -5 -2 -7 -7 -7h-20c-5 0 -7 2 -7 7v14c0 5 2 7 7 7h20c5 0 7 -2 7 -7zM436 1h-7v28h25
c4 0 6 -2 6 -6v-6c0 -4 -2 -6 -6 -6h-4l13 -10h-9l-12 10h-6v-10zM390 1h-7l16 28h7l16 -28h-7l-4 6h-18zM271 60v56l-27 78h22l15 -48l15 48h22l-27 -78v-56h-20zM369 1h-6v12l-15 16h9l9 -11l10 11h8l-15 -15v-13zM255 80v-20h-55v134l9 8l11 -8v-114h35zM352 1h-29v28h7
v-23h22v-5zM316 1h-28v28h6v-23h22v-5zM186 80v-20h-55v134l9 8l11 -8v-114h35zM275 1h-6v28h6v-28zM249 1h-23v28h25c4 0 6 -2 6 -6v-3c0 -3 -2 -4 -5 -5c3 -1 5 -2 5 -5v-4c0 -3 -3 -5 -8 -5zM204 0h-4l17 36h4zM113 194v-134l-11 -7l-10 7v134h21zM186 0h-4l17 36h4z
M171 29h5c1 0 1 0 2 -1v-9h-10v9c1 1 2 1 3 1zM168 11h10v-10h-9l-1 1v9zM44 60h-37v114l-7 9l7 11h30c23 0 35 -12 35 -37c0 -13 -5 -22 -14 -27c11 -4 17 -15 17 -32c0 -25 -10 -38 -31 -38zM134 1h-7v28h25c5 0 7 -2 7 -6v-6c0 -3 -2 -5 -7 -5h-18v-11zM119 24h-14v-23
h-6v23h-13v5h33v-5zM83 24h-13v-23h-7v23h-13v5h33v-5zM14 1h-7v28h7v-11h21v11h6v-28h-6v12h-21v-12zM625 341l22 14l-48 289h-60l-49 -289l23 -14l22 14l11 66h45l10 -66zM1021 23v-17h23v17h-23zM867 91v73c0 8 -4 12 -11 12c-8 0 -12 -4 -12 -12v-73c0 -8 4 -12 12 -12
c7 0 11 4 11 12zM873 23v-17h22v17h-22zM848 24h-15v-7h15c2 0 3 1 3 2v3c0 1 -1 2 -3 2zM698 23v-17h22v17h-22zM635 24h-15v-6h15c2 0 3 1 3 2v2c0 1 -1 2 -3 2zM635 13h-15v-7h15c2 0 3 1 3 2v3c0 1 -1 2 -3 2zM479 142v20c0 7 -4 11 -11 11h-12v-42h12c7 0 11 4 11 11z
M390 111l-8 52l-7 -52h15zM451 24h-15v-8h15c2 0 3 1 3 2v4c0 1 -1 2 -3 2zM402 24l-6 -12h13zM248 24h-16v-6h16c2 0 3 1 3 2v2c0 1 -1 2 -3 2zM248 13h-16v-7h16c2 0 3 1 3 2v3c0 1 -1 2 -3 2zM29 174v-35h8c9 0 14 6 14 18c0 11 -5 17 -14 17h-8zM149 24h-15v-7h15
c2 0 3 1 3 2v3c0 1 -1 2 -3 2zM29 120v-40h8c11 0 16 6 16 19c0 14 -5 21 -16 21h-8zM552 464l16 114l17 -114h-33z" />
    <glyph glyph-name="eight" unicode="8" 
d="M1135 94c1 -23 -10 -35 -32 -35c-21 0 -33 13 -34 38l8 7l11 -6c1 -14 6 -21 14 -21c9 1 13 6 13 16c0 5 -5 14 -16 26c-8 7 -16 15 -23 23c-3 7 -5 13 -5 20c0 23 10 34 31 34c20 0 31 -10 32 -31l-19 -4c-1 11 -6 17 -13 17s-10 -5 -10 -15c0 -7 9 -19 26 -36
c11 -11 17 -22 17 -33zM1013 60v114h-21v20h63v-20h-22v-114l-10 -7zM1108 0h-4l17 36h4zM1067 1h-5v28h5l14 -17l13 17h5v-28h-6v19l-12 -16h-1l-13 16v-19zM482 608l88 192l85 -191l210 -24l-155 -140l43 -207l-182 104l-184 -104l43 204l-156 143zM906 194h23l26 -90v90
h21v-134h-22l-28 86v-86h-20v115l-7 9zM1015 8v14c0 5 2 7 7 7h21c5 0 7 -2 7 -7v-14c0 -5 -2 -7 -7 -7h-21c-5 0 -7 2 -7 7zM998 18v5h-18v-17h18v6l6 -1v-3c0 -5 -2 -7 -7 -7h-17c-5 0 -7 2 -7 7v14c0 5 2 7 7 7h17c5 0 7 -2 7 -7v-3zM856 196c21 0 32 -11 32 -32v-73
c0 -21 -11 -32 -32 -32s-32 11 -32 32v73c0 21 11 32 32 32zM952 11h9c1 -1 1 -1 1 -2v-6c0 -1 0 -1 -1 -2h-8c-1 0 -1 0 -1 1v9zM943 24h-13v-23h-7v23h-13v5h33v-5zM773 117v-57h-20v114l-7 10l7 10h57v-20h-37v-37h27v-20h-27zM867 8v14c0 5 2 7 7 7h21c5 0 7 -2 7 -7
v-14c0 -5 -2 -7 -7 -7h-21c-5 0 -7 2 -7 7zM833 1h-7v28h25c5 0 7 -2 7 -6v-6c0 -3 -2 -5 -7 -5h-18v-11zM725 80v-20h-55v134l10 8l10 -8v-114h35zM809 21v3h-19v-6h18c5 0 7 -2 7 -7v-3c0 -5 -2 -7 -7 -7h-18c-5 0 -7 2 -7 7l5 1v-3h21v6h-18c-5 0 -7 2 -7 7v3
c0 5 2 7 7 7h16c5 0 7 -2 7 -6v-1zM765 21v2h-21v-17h21v6h-11v5h18v-9c0 -5 -2 -7 -7 -7h-20c-5 0 -7 2 -7 7v14c0 5 2 7 7 7h20c5 0 7 -2 7 -7zM656 60h-57v114l-7 10l7 10h57v-20h-37v-37h27v-20h-27v-37h37v-20zM691 8v14c0 5 2 7 7 7h22c5 0 7 -2 7 -7v-14
c0 -5 -2 -7 -7 -7h-22c-5 0 -7 2 -7 7zM684 1h-28v28h7v-23h21v-5zM549 58c-21 0 -32 11 -32 32v73c0 22 11 33 32 33s32 -11 32 -33v-15h-21v16c0 8 -4 12 -11 12c-8 0 -12 -4 -12 -12v-73c0 -8 4 -12 12 -12c7 0 11 4 11 12v26h-11l-8 9l8 11h32v-47
c0 -21 -11 -32 -32 -32zM636 1h-23v28h25c4 0 6 -2 6 -6v-3c0 -3 -1 -4 -4 -5c3 -1 5 -2 5 -5v-4c0 -3 -3 -5 -9 -5zM592 11h9v-10h-8c-1 0 -2 1 -2 2v6c0 1 0 1 1 2zM436 194h31c21 0 32 -11 32 -32v-19c0 -10 -4 -18 -11 -24l15 -59h-22l-12 51h-13v-51h-20v115l-7 9z
M584 1h-28v28h7v-23h21v-5zM546 1h-30v28h30v-5h-23v-6h13v-5h-13v-7h23v-5zM393 91h-21l-5 -31l-11 -6l-10 6l22 134h28l23 -134l-11 -6l-11 6zM498 21v2h-21v-17h21v6h-11v5h18v-9c0 -5 -2 -7 -7 -7h-20c-5 0 -7 2 -7 7v14c0 5 2 7 7 7h20c5 0 7 -2 7 -7zM436 1h-7v28h25
c4 0 6 -2 6 -6v-6c0 -4 -2 -6 -6 -6h-4l13 -10h-9l-12 10h-6v-10zM390 1h-7l16 28h7l16 -28h-7l-4 6h-18zM271 60v56l-27 78h22l15 -48l15 48h22l-27 -78v-56h-20zM369 1h-6v12l-15 16h9l9 -11l10 11h8l-15 -15v-13zM255 80v-20h-55v134l9 8l11 -8v-114h35zM352 1h-29v28h7
v-23h22v-5zM316 1h-28v28h6v-23h22v-5zM186 80v-20h-55v134l9 8l11 -8v-114h35zM275 1h-6v28h6v-28zM249 1h-23v28h25c4 0 6 -2 6 -6v-3c0 -3 -2 -4 -5 -5c3 -1 5 -2 5 -5v-4c0 -3 -3 -5 -8 -5zM204 0h-4l17 36h4zM113 194v-134l-11 -7l-10 7v134h21zM186 0h-4l17 36h4z
M171 29h5c1 0 1 0 2 -1v-9h-10v9c1 1 2 1 3 1zM168 11h10v-10h-9l-1 1v9zM44 60h-37v114l-7 9l7 11h30c23 0 35 -12 35 -37c0 -13 -5 -22 -14 -27c11 -4 17 -15 17 -32c0 -25 -10 -38 -31 -38zM134 1h-7v28h25c5 0 7 -2 7 -6v-6c0 -3 -2 -5 -7 -5h-18v-11zM119 24h-14v-23
h-6v23h-13v5h33v-5zM83 24h-13v-23h-7v23h-13v5h33v-5zM14 1h-7v28h7v-11h21v11h6v-28h-6v12h-21v-12zM625 341l22 14l-48 289h-60l-49 -289l23 -14l22 14l11 66h45l10 -66zM1021 23v-17h23v17h-23zM867 91v73c0 8 -4 12 -11 12c-8 0 -12 -4 -12 -12v-73c0 -8 4 -12 12 -12
c7 0 11 4 11 12zM873 23v-17h22v17h-22zM848 24h-15v-7h15c2 0 3 1 3 2v3c0 1 -1 2 -3 2zM698 23v-17h22v17h-22zM635 24h-15v-6h15c2 0 3 1 3 2v2c0 1 -1 2 -3 2zM635 13h-15v-7h15c2 0 3 1 3 2v3c0 1 -1 2 -3 2zM479 142v20c0 7 -4 11 -11 11h-12v-42h12c7 0 11 4 11 11z
M390 111l-8 52l-7 -52h15zM451 24h-15v-8h15c2 0 3 1 3 2v4c0 1 -1 2 -3 2zM402 24l-6 -12h13zM248 24h-16v-6h16c2 0 3 1 3 2v2c0 1 -1 2 -3 2zM248 13h-16v-7h16c2 0 3 1 3 2v3c0 1 -1 2 -3 2zM29 174v-35h8c9 0 14 6 14 18c0 11 -5 17 -14 17h-8zM149 24h-15v-7h15
c2 0 3 1 3 2v3c0 1 -1 2 -3 2zM29 120v-40h8c11 0 16 6 16 19c0 14 -5 21 -16 21h-8zM552 464l16 114l17 -114h-33z" />
    <glyph glyph-name="nine" unicode="9" 
d="M1135 94c1 -23 -10 -35 -32 -35c-21 0 -33 13 -34 38l8 7l11 -6c1 -14 6 -21 14 -21c9 1 13 6 13 16c0 5 -5 14 -16 26c-8 7 -16 15 -23 23c-3 7 -5 13 -5 20c0 23 10 34 31 34c20 0 31 -10 32 -31l-19 -4c-1 11 -6 17 -13 17s-10 -5 -10 -15c0 -7 9 -19 26 -36
c11 -11 17 -22 17 -33zM1013 60v114h-21v20h63v-20h-22v-114l-10 -7zM1108 0h-4l17 36h4zM1067 1h-5v28h5l14 -17l13 17h5v-28h-6v19l-12 -16h-1l-13 16v-19zM482 608l88 192l85 -191l210 -24l-155 -140l43 -207l-182 104l-184 -104l43 204l-156 143zM906 194h23l26 -90v90
h21v-134h-22l-28 86v-86h-20v115l-7 9zM1015 8v14c0 5 2 7 7 7h21c5 0 7 -2 7 -7v-14c0 -5 -2 -7 -7 -7h-21c-5 0 -7 2 -7 7zM998 18v5h-18v-17h18v6l6 -1v-3c0 -5 -2 -7 -7 -7h-17c-5 0 -7 2 -7 7v14c0 5 2 7 7 7h17c5 0 7 -2 7 -7v-3zM856 196c21 0 32 -11 32 -32v-73
c0 -21 -11 -32 -32 -32s-32 11 -32 32v73c0 21 11 32 32 32zM952 11h9c1 -1 1 -1 1 -2v-6c0 -1 0 -1 -1 -2h-8c-1 0 -1 0 -1 1v9zM943 24h-13v-23h-7v23h-13v5h33v-5zM773 117v-57h-20v114l-7 10l7 10h57v-20h-37v-37h27v-20h-27zM867 8v14c0 5 2 7 7 7h21c5 0 7 -2 7 -7
v-14c0 -5 -2 -7 -7 -7h-21c-5 0 -7 2 -7 7zM833 1h-7v28h25c5 0 7 -2 7 -6v-6c0 -3 -2 -5 -7 -5h-18v-11zM725 80v-20h-55v134l10 8l10 -8v-114h35zM809 21v3h-19v-6h18c5 0 7 -2 7 -7v-3c0 -5 -2 -7 -7 -7h-18c-5 0 -7 2 -7 7l5 1v-3h21v6h-18c-5 0 -7 2 -7 7v3
c0 5 2 7 7 7h16c5 0 7 -2 7 -6v-1zM765 21v2h-21v-17h21v6h-11v5h18v-9c0 -5 -2 -7 -7 -7h-20c-5 0 -7 2 -7 7v14c0 5 2 7 7 7h20c5 0 7 -2 7 -7zM656 60h-57v114l-7 10l7 10h57v-20h-37v-37h27v-20h-27v-37h37v-20zM691 8v14c0 5 2 7 7 7h22c5 0 7 -2 7 -7v-14
c0 -5 -2 -7 -7 -7h-22c-5 0 -7 2 -7 7zM684 1h-28v28h7v-23h21v-5zM549 58c-21 0 -32 11 -32 32v73c0 22 11 33 32 33s32 -11 32 -33v-15h-21v16c0 8 -4 12 -11 12c-8 0 -12 -4 -12 -12v-73c0 -8 4 -12 12 -12c7 0 11 4 11 12v26h-11l-8 9l8 11h32v-47
c0 -21 -11 -32 -32 -32zM636 1h-23v28h25c4 0 6 -2 6 -6v-3c0 -3 -1 -4 -4 -5c3 -1 5 -2 5 -5v-4c0 -3 -3 -5 -9 -5zM592 11h9v-10h-8c-1 0 -2 1 -2 2v6c0 1 0 1 1 2zM436 194h31c21 0 32 -11 32 -32v-19c0 -10 -4 -18 -11 -24l15 -59h-22l-12 51h-13v-51h-20v115l-7 9z
M584 1h-28v28h7v-23h21v-5zM546 1h-30v28h30v-5h-23v-6h13v-5h-13v-7h23v-5zM393 91h-21l-5 -31l-11 -6l-10 6l22 134h28l23 -134l-11 -6l-11 6zM498 21v2h-21v-17h21v6h-11v5h18v-9c0 -5 -2 -7 -7 -7h-20c-5 0 -7 2 -7 7v14c0 5 2 7 7 7h20c5 0 7 -2 7 -7zM436 1h-7v28h25
c4 0 6 -2 6 -6v-6c0 -4 -2 -6 -6 -6h-4l13 -10h-9l-12 10h-6v-10zM390 1h-7l16 28h7l16 -28h-7l-4 6h-18zM271 60v56l-27 78h22l15 -48l15 48h22l-27 -78v-56h-20zM369 1h-6v12l-15 16h9l9 -11l10 11h8l-15 -15v-13zM255 80v-20h-55v134l9 8l11 -8v-114h35zM352 1h-29v28h7
v-23h22v-5zM316 1h-28v28h6v-23h22v-5zM186 80v-20h-55v134l9 8l11 -8v-114h35zM275 1h-6v28h6v-28zM249 1h-23v28h25c4 0 6 -2 6 -6v-3c0 -3 -2 -4 -5 -5c3 -1 5 -2 5 -5v-4c0 -3 -3 -5 -8 -5zM204 0h-4l17 36h4zM113 194v-134l-11 -7l-10 7v134h21zM186 0h-4l17 36h4z
M171 29h5c1 0 1 0 2 -1v-9h-10v9c1 1 2 1 3 1zM168 11h10v-10h-9l-1 1v9zM44 60h-37v114l-7 9l7 11h30c23 0 35 -12 35 -37c0 -13 -5 -22 -14 -27c11 -4 17 -15 17 -32c0 -25 -10 -38 -31 -38zM134 1h-7v28h25c5 0 7 -2 7 -6v-6c0 -3 -2 -5 -7 -5h-18v-11zM119 24h-14v-23
h-6v23h-13v5h33v-5zM83 24h-13v-23h-7v23h-13v5h33v-5zM14 1h-7v28h7v-11h21v11h6v-28h-6v12h-21v-12zM625 341l22 14l-48 289h-60l-49 -289l23 -14l22 14l11 66h45l10 -66zM1021 23v-17h23v17h-23zM867 91v73c0 8 -4 12 -11 12c-8 0 -12 -4 -12 -12v-73c0 -8 4 -12 12 -12
c7 0 11 4 11 12zM873 23v-17h22v17h-22zM848 24h-15v-7h15c2 0 3 1 3 2v3c0 1 -1 2 -3 2zM698 23v-17h22v17h-22zM635 24h-15v-6h15c2 0 3 1 3 2v2c0 1 -1 2 -3 2zM635 13h-15v-7h15c2 0 3 1 3 2v3c0 1 -1 2 -3 2zM479 142v20c0 7 -4 11 -11 11h-12v-42h12c7 0 11 4 11 11z
M390 111l-8 52l-7 -52h15zM451 24h-15v-8h15c2 0 3 1 3 2v4c0 1 -1 2 -3 2zM402 24l-6 -12h13zM248 24h-16v-6h16c2 0 3 1 3 2v2c0 1 -1 2 -3 2zM248 13h-16v-7h16c2 0 3 1 3 2v3c0 1 -1 2 -3 2zM29 174v-35h8c9 0 14 6 14 18c0 11 -5 17 -14 17h-8zM149 24h-15v-7h15
c2 0 3 1 3 2v3c0 1 -1 2 -3 2zM29 120v-40h8c11 0 16 6 16 19c0 14 -5 21 -16 21h-8zM552 464l16 114l17 -114h-33z" />
    </font>
</defs>
</svg>
